<?xml version="1.0" encoding="UTF-8"?><svg xmlns="http://www.w3.org/2000/svg" xmlns:xlink="http://www.w3.org/1999/xlink" fill-opacity="1" color-rendering="auto" color-interpolation="auto" stroke="black" text-rendering="auto" stroke-linecap="square" width="1486" stroke-miterlimit="10" stroke-opacity="1" shape-rendering="auto" fill="black" stroke-dasharray="none" font-weight="normal" stroke-width="1" height="260" font-family="'Dialog'" font-style="normal" stroke-linejoin="miter" font-size="12" stroke-dashoffset="0" image-rendering="auto">
  <!--Generated by ySVG-->
  <defs id="genericDefs"/>
  <g>
    <defs id="defs1">
      <clipPath clipPathUnits="userSpaceOnUse" id="clipPath1">
        <path d="M0 0 L1486 0 L1486 260 L0 260 L0 0 Z"/>
      </clipPath>
      <clipPath clipPathUnits="userSpaceOnUse" id="clipPath2">
        <path d="M-15 -15 L1471 -15 L1471 245 L-15 245 L-15 -15 Z"/>
      </clipPath>
    </defs>
    <g fill="white" transform="translate(15,15)" stroke="white">
      <rect x="-15" width="1486" height="260" y="-15" clip-path="url(#clipPath2)" stroke="none"/>
    </g>
    <g fill="rgb(255,204,153)" transform="matrix(1,0,0,1,15,15)" stroke="rgb(255,204,153)">
      <rect x="0" width="428" height="30" y="100" clip-path="url(#clipPath2)" stroke="none"/>
    </g>
    <g stroke-miterlimit="1.45" font-family="sans-serif" transform="matrix(1,0,0,1,15,15)" stroke-linecap="butt">
      <text x="7" xml:space="preserve" y="119.1562" clip-path="url(#clipPath2)" stroke="none">com.anrisoftware.sscontrol:sscontrol-workers-text:jar:1.0-SNAPSHOT</text>
      <rect fill="none" x="0" width="428" height="30" y="100" clip-path="url(#clipPath2)"/>
    </g>
    <g fill="rgb(255,204,153)" transform="matrix(1,0,0,1,15,15)" stroke="rgb(255,204,153)">
      <rect x="468" width="451.1152" height="30" y="0" clip-path="url(#clipPath2)" stroke="none"/>
    </g>
    <g stroke-miterlimit="1.45" font-family="sans-serif" transform="matrix(1,0,0,1,15,15)" stroke-linecap="butt">
      <text x="475" xml:space="preserve" y="19.1562" clip-path="url(#clipPath2)" stroke="none">com.anrisoftware.sscontrol:sscontrol-workers:jar:0.1-SNAPSHOT:compile</text>
      <rect fill="none" x="468" width="451.1152" height="30" y="0" clip-path="url(#clipPath2)"/>
    </g>
    <g fill="rgb(255,204,153)" transform="matrix(1,0,0,1,15,15)" stroke="rgb(255,204,153)">
      <rect x="959.1152" width="338.5156" height="30" y="0" clip-path="url(#clipPath2)" stroke="none"/>
    </g>
    <g stroke-miterlimit="1.45" font-family="sans-serif" transform="matrix(1,0,0,1,15,15)" stroke-linecap="butt">
      <text x="966.1152" xml:space="preserve" y="19.1562" clip-path="url(#clipPath2)" stroke="none">org.apache.commons:commons-lang3:jar:3.1:compile</text>
      <rect fill="none" x="959.1152" width="338.5156" height="30" y="0" clip-path="url(#clipPath2)"/>
    </g>
    <g fill="rgb(204,204,255)" transform="matrix(1,0,0,1,15,15)" stroke="rgb(204,204,255)">
      <rect x="468" width="259.2207" height="30" y="200" clip-path="url(#clipPath2)" stroke="none"/>
    </g>
    <g stroke-miterlimit="1.45" font-family="sans-serif" transform="matrix(1,0,0,1,15,15)" stroke-linecap="butt">
      <text x="475" xml:space="preserve" y="219.1562" clip-path="url(#clipPath2)" stroke="none">commons-io:commons-io:jar:2.4:compile</text>
      <rect fill="none" x="468" width="259.2207" height="30" y="200" clip-path="url(#clipPath2)"/>
    </g>
    <g fill="rgb(204,255,255)" transform="matrix(1,0,0,1,15,15)" stroke="rgb(204,255,255)">
      <rect x="468" width="381.2305" height="30" y="50" clip-path="url(#clipPath2)" stroke="none"/>
    </g>
    <g stroke-miterlimit="1.45" font-family="sans-serif" transform="matrix(1,0,0,1,15,15)" stroke-linecap="butt">
      <text x="475" xml:space="preserve" y="69.1562" clip-path="url(#clipPath2)" stroke="none">com.anrisoftware.globalpom:globalpom-log:jar:1.9.1:compile</text>
      <rect fill="none" x="468" width="381.2305" height="30" y="50" clip-path="url(#clipPath2)"/>
    </g>
    <g fill="rgb(204,204,255)" transform="matrix(1,0,0,1,15,15)" stroke="rgb(204,204,255)">
      <rect x="468" width="406.7773" height="30" y="150" clip-path="url(#clipPath2)" stroke="none"/>
    </g>
    <g stroke-miterlimit="1.45" font-family="sans-serif" transform="matrix(1,0,0,1,15,15)" stroke-linecap="butt">
      <text x="475" xml:space="preserve" y="169.1562" clip-path="url(#clipPath2)" stroke="none">com.google.inject.extensions:guice-assistedinject:jar:3.0:compile</text>
      <rect fill="none" x="468" width="406.7773" height="30" y="150" clip-path="url(#clipPath2)"/>
    </g>
    <g fill="rgb(204,204,255)" transform="matrix(1,0,0,1,15,15)" stroke="rgb(204,204,255)">
      <rect x="914.7773" width="251.5625" height="30" y="150" clip-path="url(#clipPath2)" stroke="none"/>
    </g>
    <g stroke-miterlimit="1.45" font-family="sans-serif" transform="matrix(1,0,0,1,15,15)" stroke-linecap="butt">
      <text x="921.7773" xml:space="preserve" y="169.1562" clip-path="url(#clipPath2)" stroke="none">com.google.inject:guice:jar:3.0:compile</text>
      <rect fill="none" x="914.7773" width="251.5625" height="30" y="150" clip-path="url(#clipPath2)"/>
    </g>
    <g fill="rgb(204,204,255)" transform="matrix(1,0,0,1,15,15)" stroke="rgb(204,204,255)">
      <rect x="1206.3398" width="238.7598" height="30" y="175" clip-path="url(#clipPath2)" stroke="none"/>
    </g>
    <g stroke-miterlimit="1.45" font-family="sans-serif" transform="matrix(1,0,0,1,15,15)" stroke-linecap="butt">
      <text x="1213.3398" xml:space="preserve" y="194.1562" clip-path="url(#clipPath2)" stroke="none">javax.inject:javax.inject:jar:1:compile</text>
      <rect fill="none" x="1206.3398" width="238.7598" height="30" y="175" clip-path="url(#clipPath2)"/>
    </g>
    <g fill="rgb(204,204,255)" transform="matrix(1,0,0,1,15,15)" stroke="rgb(204,204,255)">
      <rect x="1206.3398" width="249.3887" height="30" y="125" clip-path="url(#clipPath2)" stroke="none"/>
    </g>
    <g stroke-miterlimit="1.45" font-family="sans-serif" transform="matrix(1,0,0,1,15,15)" stroke-linecap="butt">
      <text x="1213.3398" xml:space="preserve" y="144.1562" clip-path="url(#clipPath2)" stroke="none">aopalliance:aopalliance:jar:1.0:compile</text>
      <rect fill="none" x="1206.3398" width="249.3887" height="30" y="125" clip-path="url(#clipPath2)"/>
    </g>
    <g fill="rgb(204,204,255)" transform="matrix(1,0,0,1,15,15)" stroke="rgb(204,204,255)">
      <rect x="468" width="219.5234" height="30" y="100" clip-path="url(#clipPath2)" stroke="none"/>
    </g>
    <g stroke-miterlimit="1.45" font-family="sans-serif" transform="matrix(1,0,0,1,15,15)" stroke-linecap="butt">
      <text x="475" xml:space="preserve" y="119.1562" clip-path="url(#clipPath2)" stroke="none">org.slf4j:slf4j-api:jar:1.6.6:compile</text>
      <rect fill="none" x="468" width="219.5234" height="30" y="100" clip-path="url(#clipPath2)"/>
      <path fill="none" d="M108.5 99.9689 L108.5 36.2132 L129.7132 15 L467.9587 15" clip-path="url(#clipPath2)"/>
      <path fill="none" d="M919.1152 15 L959.0762 15" clip-path="url(#clipPath2)"/>
      <path fill="none" d="M108.5 130 L108.5 193.7868 L129.7132 215 L467.9587 215" clip-path="url(#clipPath2)"/>
      <path fill="none" d="M319.5 99.951 L319.5 74.8995 L329.3995 65 L467.9662 65" clip-path="url(#clipPath2)"/>
      <path fill="none" d="M319.5 130 L319.5 155.1005 L329.3995 165 L467.9662 165" clip-path="url(#clipPath2)"/>
      <path fill="none" d="M874.7773 165 L914.7383 165" clip-path="url(#clipPath2)"/>
      <path fill="none" d="M1040.5586 180 L1040.5586 191.7574 L1044.8013 196 L1206.3004 196" clip-path="url(#clipPath2)"/>
      <path fill="none" d="M1040.5586 149.9743 L1040.5586 136.8284 L1043.387 134 L1206.3 134" clip-path="url(#clipPath2)"/>
      <path fill="none" d="M428 115 L467.9609 115" clip-path="url(#clipPath2)"/>
    </g>
  </g>
</svg>
