<?xml version="1.0" encoding="UTF-8"?><svg xmlns="http://www.w3.org/2000/svg" xmlns:xlink="http://www.w3.org/1999/xlink" fill-opacity="1" color-rendering="auto" color-interpolation="auto" stroke="black" text-rendering="auto" stroke-linecap="square" width="1449" stroke-miterlimit="10" stroke-opacity="1" shape-rendering="auto" fill="black" stroke-dasharray="none" font-weight="normal" stroke-width="1" height="660" font-family="'Dialog'" font-style="normal" stroke-linejoin="miter" font-size="12" stroke-dashoffset="0" image-rendering="auto">
  <!--Generated by ySVG-->
  <defs id="genericDefs"/>
  <g>
    <defs id="defs1">
      <clipPath clipPathUnits="userSpaceOnUse" id="clipPath1">
        <path d="M0 0 L1449 0 L1449 660 L0 660 L0 0 Z"/>
      </clipPath>
      <clipPath clipPathUnits="userSpaceOnUse" id="clipPath2">
        <path d="M-15 -15 L1434 -15 L1434 645 L-15 645 L-15 -15 Z"/>
      </clipPath>
    </defs>
    <g fill="white" transform="translate(15,15)" stroke="white">
      <rect x="-15" width="1449" height="660" y="-15" clip-path="url(#clipPath2)" stroke="none"/>
    </g>
    <g fill="rgb(255,204,153)" transform="matrix(1,0,0,1,15,15)" stroke="rgb(255,204,153)">
      <rect x="0" width="390.3359" height="30" y="400" clip-path="url(#clipPath2)" stroke="none"/>
    </g>
    <g stroke-miterlimit="1.45" font-family="sans-serif" transform="matrix(1,0,0,1,15,15)" stroke-linecap="butt">
      <text x="7" xml:space="preserve" y="419.1562" clip-path="url(#clipPath2)" stroke="none">com.anrisoftware.sscontrol:sscontrol-profile:jar:0.1-SNAPSHOT</text>
      <rect fill="none" x="0" width="390.3359" height="30" y="400" clip-path="url(#clipPath2)"/>
    </g>
    <g fill="rgb(255,204,153)" transform="matrix(1,0,0,1,15,15)" stroke="rgb(255,204,153)">
      <rect x="430.3359" width="421.8125" height="30" y="600" clip-path="url(#clipPath2)" stroke="none"/>
    </g>
    <g stroke-miterlimit="1.45" font-family="sans-serif" transform="matrix(1,0,0,1,15,15)" stroke-linecap="butt">
      <text x="437.3359" xml:space="preserve" y="619.1562" clip-path="url(#clipPath2)" stroke="none">com.anrisoftware.sscontrol:sscontrol-api:jar:0.1-SNAPSHOT:compile</text>
      <rect fill="none" x="430.3359" width="421.8125" height="30" y="600" clip-path="url(#clipPath2)"/>
    </g>
    <g fill="rgb(204,204,255)" transform="matrix(1,0,0,1,15,15)" stroke="rgb(204,204,255)">
      <rect x="430.3359" width="226.959" height="30" y="550" clip-path="url(#clipPath2)" stroke="none"/>
    </g>
    <g stroke-miterlimit="1.45" font-family="sans-serif" transform="matrix(1,0,0,1,15,15)" stroke-linecap="butt">
      <text x="437.3359" xml:space="preserve" y="569.1562" clip-path="url(#clipPath2)" stroke="none">org.mangosdk:spi:jar:0.2.1:compile</text>
      <rect fill="none" x="430.3359" width="226.959" height="30" y="550" clip-path="url(#clipPath2)"/>
    </g>
    <g fill="rgb(204,204,255)" transform="matrix(1,0,0,1,15,15)" stroke="rgb(204,204,255)">
      <rect x="430.3359" width="338.5156" height="30" y="500" clip-path="url(#clipPath2)" stroke="none"/>
    </g>
    <g stroke-miterlimit="1.45" font-family="sans-serif" transform="matrix(1,0,0,1,15,15)" stroke-linecap="butt">
      <text x="437.3359" xml:space="preserve" y="519.1562" clip-path="url(#clipPath2)" stroke="none">org.apache.commons:commons-lang3:jar:3.1:compile</text>
      <rect fill="none" x="430.3359" width="338.5156" height="30" y="500" clip-path="url(#clipPath2)"/>
    </g>
    <g fill="rgb(204,204,255)" transform="matrix(1,0,0,1,15,15)" stroke="rgb(204,204,255)">
      <rect x="430.3359" width="376.9707" height="30" y="450" clip-path="url(#clipPath2)" stroke="none"/>
    </g>
    <g stroke-miterlimit="1.45" font-family="sans-serif" transform="matrix(1,0,0,1,15,15)" stroke-linecap="butt">
      <text x="437.3359" xml:space="preserve" y="469.1562" clip-path="url(#clipPath2)" stroke="none">commons-collections:commons-collections:jar:3.2.1:compile</text>
      <rect fill="none" x="430.3359" width="376.9707" height="30" y="450" clip-path="url(#clipPath2)"/>
    </g>
    <g fill="rgb(204,204,255)" transform="matrix(1,0,0,1,15,15)" stroke="rgb(204,204,255)">
      <rect x="430.3359" width="406.7773" height="30" y="400" clip-path="url(#clipPath2)" stroke="none"/>
    </g>
    <g stroke-miterlimit="1.45" font-family="sans-serif" transform="matrix(1,0,0,1,15,15)" stroke-linecap="butt">
      <text x="437.3359" xml:space="preserve" y="419.1562" clip-path="url(#clipPath2)" stroke="none">com.google.inject.extensions:guice-assistedinject:jar:3.0:compile</text>
      <rect fill="none" x="430.3359" width="406.7773" height="30" y="400" clip-path="url(#clipPath2)"/>
    </g>
    <g fill="rgb(204,204,255)" transform="matrix(1,0,0,1,15,15)" stroke="rgb(204,204,255)">
      <rect x="877.1133" width="251.5625" height="30" y="400" clip-path="url(#clipPath2)" stroke="none"/>
    </g>
    <g stroke-miterlimit="1.45" font-family="sans-serif" transform="matrix(1,0,0,1,15,15)" stroke-linecap="butt">
      <text x="884.1133" xml:space="preserve" y="419.1562" clip-path="url(#clipPath2)" stroke="none">com.google.inject:guice:jar:3.0:compile</text>
      <rect fill="none" x="877.1133" width="251.5625" height="30" y="400" clip-path="url(#clipPath2)"/>
    </g>
    <g fill="rgb(204,204,255)" transform="matrix(1,0,0,1,15,15)" stroke="rgb(204,204,255)">
      <rect x="1168.6758" width="238.7598" height="30" y="425" clip-path="url(#clipPath2)" stroke="none"/>
    </g>
    <g stroke-miterlimit="1.45" font-family="sans-serif" transform="matrix(1,0,0,1,15,15)" stroke-linecap="butt">
      <text x="1175.6758" xml:space="preserve" y="444.1562" clip-path="url(#clipPath2)" stroke="none">javax.inject:javax.inject:jar:1:compile</text>
      <rect fill="none" x="1168.6758" width="238.7598" height="30" y="425" clip-path="url(#clipPath2)"/>
    </g>
    <g fill="rgb(204,204,255)" transform="matrix(1,0,0,1,15,15)" stroke="rgb(204,204,255)">
      <rect x="1168.6758" width="249.3887" height="30" y="375" clip-path="url(#clipPath2)" stroke="none"/>
    </g>
    <g stroke-miterlimit="1.45" font-family="sans-serif" transform="matrix(1,0,0,1,15,15)" stroke-linecap="butt">
      <text x="1175.6758" xml:space="preserve" y="394.1562" clip-path="url(#clipPath2)" stroke="none">aopalliance:aopalliance:jar:1.0:compile</text>
      <rect fill="none" x="1168.6758" width="249.3887" height="30" y="375" clip-path="url(#clipPath2)"/>
    </g>
    <g fill="rgb(204,255,255)" transform="matrix(1,0,0,1,15,15)" stroke="rgb(204,255,255)">
      <rect x="430.3359" width="381.2305" height="30" y="350" clip-path="url(#clipPath2)" stroke="none"/>
    </g>
    <g stroke-miterlimit="1.45" font-family="sans-serif" transform="matrix(1,0,0,1,15,15)" stroke-linecap="butt">
      <text x="437.3359" xml:space="preserve" y="369.1562" clip-path="url(#clipPath2)" stroke="none">com.anrisoftware.globalpom:globalpom-log:jar:1.9.1:compile</text>
      <rect fill="none" x="430.3359" width="381.2305" height="30" y="350" clip-path="url(#clipPath2)"/>
    </g>
    <g fill="rgb(204,255,255)" transform="matrix(1,0,0,1,15,15)" stroke="rgb(204,255,255)">
      <rect x="430.3359" width="505.3965" height="30" y="300" clip-path="url(#clipPath2)" stroke="none"/>
    </g>
    <g stroke-miterlimit="1.45" font-family="sans-serif" transform="matrix(1,0,0,1,15,15)" stroke-linecap="butt">
      <text x="437.3359" xml:space="preserve" y="319.1562" clip-path="url(#clipPath2)" stroke="none">com.anrisoftware.propertiesutils:propertiesutils-contextproperties:jar:1.5:compile</text>
      <rect fill="none" x="430.3359" width="505.3965" height="30" y="300" clip-path="url(#clipPath2)"/>
    </g>
    <g fill="rgb(204,204,255)" transform="matrix(1,0,0,1,15,15)" stroke="rgb(204,204,255)">
      <rect x="430.3359" width="291.7754" height="30" y="125" clip-path="url(#clipPath2)" stroke="none"/>
    </g>
    <g stroke-miterlimit="1.45" font-family="sans-serif" transform="matrix(1,0,0,1,15,15)" stroke-linecap="butt">
      <text x="437.3359" xml:space="preserve" y="144.1562" clip-path="url(#clipPath2)" stroke="none">org.codehaus.groovy:groovy:jar:2.1.1:compile</text>
      <rect fill="none" x="430.3359" width="291.7754" height="30" y="125" clip-path="url(#clipPath2)"/>
    </g>
    <g fill="rgb(204,204,255)" transform="matrix(1,0,0,1,15,15)" stroke="rgb(204,204,255)">
      <rect x="762.1113" width="179.4863" height="30" y="250" clip-path="url(#clipPath2)" stroke="none"/>
    </g>
    <g stroke-miterlimit="1.45" font-family="sans-serif" transform="matrix(1,0,0,1,15,15)" stroke-linecap="butt">
      <text x="769.1113" xml:space="preserve" y="269.1562" clip-path="url(#clipPath2)" stroke="none">antlr:antlr:jar:2.7.7:compile</text>
      <rect fill="none" x="762.1113" width="179.4863" height="30" y="250" clip-path="url(#clipPath2)"/>
    </g>
    <g fill="rgb(204,204,255)" transform="matrix(1,0,0,1,15,15)" stroke="rgb(204,204,255)">
      <rect x="762.1113" width="243.8105" height="30" y="200" clip-path="url(#clipPath2)" stroke="none"/>
    </g>
    <g stroke-miterlimit="1.45" font-family="sans-serif" transform="matrix(1,0,0,1,15,15)" stroke-linecap="butt">
      <text x="769.1113" xml:space="preserve" y="219.1562" clip-path="url(#clipPath2)" stroke="none">org.ow2.asm:asm-tree:jar:4.0:compile</text>
      <rect fill="none" x="762.1113" width="243.8105" height="30" y="200" clip-path="url(#clipPath2)"/>
    </g>
    <g fill="rgb(204,204,255)" transform="matrix(1,0,0,1,15,15)" stroke="rgb(204,204,255)">
      <rect x="762.1113" width="277.9238" height="30" y="150" clip-path="url(#clipPath2)" stroke="none"/>
    </g>
    <g stroke-miterlimit="1.45" font-family="sans-serif" transform="matrix(1,0,0,1,15,15)" stroke-linecap="butt">
      <text x="769.1113" xml:space="preserve" y="169.1562" clip-path="url(#clipPath2)" stroke="none">org.ow2.asm:asm-commons:jar:4.0:compile</text>
      <rect fill="none" x="762.1113" width="277.9238" height="30" y="150" clip-path="url(#clipPath2)"/>
    </g>
    <g fill="rgb(204,204,255)" transform="matrix(1,0,0,1,15,15)" stroke="rgb(204,204,255)">
      <rect x="762.1113" width="215.0762" height="30" y="100" clip-path="url(#clipPath2)" stroke="none"/>
    </g>
    <g stroke-miterlimit="1.45" font-family="sans-serif" transform="matrix(1,0,0,1,15,15)" stroke-linecap="butt">
      <text x="769.1113" xml:space="preserve" y="119.1562" clip-path="url(#clipPath2)" stroke="none">org.ow2.asm:asm:jar:4.0:compile</text>
      <rect fill="none" x="762.1113" width="215.0762" height="30" y="100" clip-path="url(#clipPath2)"/>
    </g>
    <g fill="rgb(204,204,255)" transform="matrix(1,0,0,1,15,15)" stroke="rgb(204,204,255)">
      <rect x="762.1113" width="238.3848" height="30" y="50" clip-path="url(#clipPath2)" stroke="none"/>
    </g>
    <g stroke-miterlimit="1.45" font-family="sans-serif" transform="matrix(1,0,0,1,15,15)" stroke-linecap="butt">
      <text x="769.1113" xml:space="preserve" y="69.1562" clip-path="url(#clipPath2)" stroke="none">org.ow2.asm:asm-util:jar:4.0:compile</text>
      <rect fill="none" x="762.1113" width="238.3848" height="30" y="50" clip-path="url(#clipPath2)"/>
    </g>
    <g fill="rgb(204,204,255)" transform="matrix(1,0,0,1,15,15)" stroke="rgb(204,204,255)">
      <rect x="762.1113" width="267.9922" height="30" y="0" clip-path="url(#clipPath2)" stroke="none"/>
    </g>
    <g stroke-miterlimit="1.45" font-family="sans-serif" transform="matrix(1,0,0,1,15,15)" stroke-linecap="butt">
      <text x="769.1113" xml:space="preserve" y="19.1562" clip-path="url(#clipPath2)" stroke="none">org.ow2.asm:asm-analysis:jar:4.0:compile</text>
      <rect fill="none" x="762.1113" width="267.9922" height="30" y="0" clip-path="url(#clipPath2)"/>
    </g>
    <g fill="rgb(204,204,255)" transform="matrix(1,0,0,1,15,15)" stroke="rgb(204,204,255)">
      <rect x="430.3359" width="219.5234" height="30" y="61.2256" clip-path="url(#clipPath2)" stroke="none"/>
    </g>
    <g stroke-miterlimit="1.45" font-family="sans-serif" transform="matrix(1,0,0,1,15,15)" stroke-linecap="butt">
      <text x="437.3359" xml:space="preserve" y="80.3818" clip-path="url(#clipPath2)" stroke="none">org.slf4j:slf4j-api:jar:1.6.6:compile</text>
      <rect fill="none" x="430.3359" width="219.5234" height="30" y="61.2256" clip-path="url(#clipPath2)"/>
      <path fill="none" d="M51.042 430 L51.042 593.7868 L72.2552 615 L430.2922 615" clip-path="url(#clipPath2)"/>
      <path fill="none" d="M147.126 430 L147.126 543.7868 L168.3392 565 L430.304 565" clip-path="url(#clipPath2)"/>
      <path fill="none" d="M243.21 430 L243.21 493.7868 L264.4232 515 L430.2954 515" clip-path="url(#clipPath2)"/>
      <path fill="none" d="M339.2939 430 L339.2939 456.5147 L347.7792 465 L430.2956 465" clip-path="url(#clipPath2)"/>
      <path fill="none" d="M390.3359 415 L430.2969 415" clip-path="url(#clipPath2)"/>
      <path fill="none" d="M837.1133 415 L877.0742 415" clip-path="url(#clipPath2)"/>
      <path fill="none" d="M1002.8945 430 L1002.8945 443.1716 L1005.723 446 L1168.636 446" clip-path="url(#clipPath2)"/>
      <path fill="none" d="M1002.8945 399.9743 L1002.8945 386.8284 L1005.723 384 L1168.636 384" clip-path="url(#clipPath2)"/>
      <path fill="none" d="M339.2939 399.951 L339.2939 374.8995 L349.1935 365 L430.2963 365" clip-path="url(#clipPath2)"/>
      <path fill="none" d="M243.21 399.9688 L243.21 336.2132 L264.4232 315 L430.2954 315" clip-path="url(#clipPath2)"/>
      <path fill="none" d="M147.126 399.9709 L147.126 161.2132 L168.3392 140 L430.304 140" clip-path="url(#clipPath2)"/>
      <path fill="none" d="M480.9652 155 L480.9652 243.7868 L502.1784 265 L762.0796 265" clip-path="url(#clipPath2)"/>
      <path fill="none" d="M576.2236 155 L576.2236 198.0294 L593.1942 215 L762.0701 215" clip-path="url(#clipPath2)"/>
      <path fill="none" d="M671.4821 155 L671.4821 168.1716 L674.3105 171 L762.0685 171" clip-path="url(#clipPath2)"/>
      <path fill="none" d="M709.236 124.9743 L709.236 111.8284 L712.0645 109 L762.0624 109" clip-path="url(#clipPath2)"/>
      <path fill="none" d="M689.4854 124.958 L689.4854 81.9706 L706.4559 65 L762.0842 65" clip-path="url(#clipPath2)"/>
      <path fill="none" d="M669.7347 124.9566 L669.7347 36.2132 L690.9479 15 L762.0766 15" clip-path="url(#clipPath2)"/>
      <path fill="none" d="M51.042 399.9631 L51.042 97.4388 L72.2552 76.2256 L430.2922 76.2256" clip-path="url(#clipPath2)"/>
    </g>
  </g>
</svg>
