<?xml version="1.0" encoding="UTF-8"?><svg xmlns="http://www.w3.org/2000/svg" xmlns:xlink="http://www.w3.org/1999/xlink" fill-opacity="1" color-rendering="auto" color-interpolation="auto" stroke="black" text-rendering="auto" stroke-linecap="square" width="1956" stroke-miterlimit="10" stroke-opacity="1" shape-rendering="auto" fill="black" stroke-dasharray="none" font-weight="normal" stroke-width="1" height="939" font-family="'Dialog'" font-style="normal" stroke-linejoin="miter" font-size="12" stroke-dashoffset="0" image-rendering="auto">
  <!--Generated by ySVG-->
  <defs id="genericDefs"/>
  <g>
    <defs id="defs1">
      <clipPath clipPathUnits="userSpaceOnUse" id="clipPath1">
        <path d="M0 0 L1956 0 L1956 939 L0 939 L0 0 Z"/>
      </clipPath>
      <clipPath clipPathUnits="userSpaceOnUse" id="clipPath2">
        <path d="M-15 -15 L1941 -15 L1941 924 L-15 924 L-15 -15 Z"/>
      </clipPath>
    </defs>
    <g fill="white" transform="translate(15,15)" stroke="white">
      <rect x="-15" width="1956" height="939" y="-15" clip-path="url(#clipPath2)" stroke="none"/>
    </g>
    <g fill="rgb(255,204,153)" transform="matrix(1,0,0,1,15,15)" stroke="rgb(255,204,153)">
      <rect x="0" width="378.4238" height="30" y="250" clip-path="url(#clipPath2)" stroke="none"/>
    </g>
    <g stroke-miterlimit="1.45" font-family="sans-serif" transform="matrix(1,0,0,1,15,15)" stroke-linecap="butt">
      <text x="7" xml:space="preserve" y="269.1562" clip-path="url(#clipPath2)" stroke="none">com.anrisoftware.sscontrol:sscontrol-core:jar:0.1-SNAPSHOT</text>
      <rect fill="none" x="0" width="378.4238" height="30" y="250" clip-path="url(#clipPath2)"/>
    </g>
    <g fill="rgb(255,204,153)" transform="matrix(1,0,0,1,15,15)" stroke="rgb(255,204,153)">
      <rect x="418.4238" width="421.8125" height="30" y="878.0258" clip-path="url(#clipPath2)" stroke="none"/>
    </g>
    <g stroke-miterlimit="1.45" font-family="sans-serif" transform="matrix(1,0,0,1,15,15)" stroke-linecap="butt">
      <text x="425.4238" xml:space="preserve" y="897.1821" clip-path="url(#clipPath2)" stroke="none">com.anrisoftware.sscontrol:sscontrol-api:jar:0.1-SNAPSHOT:compile</text>
      <rect fill="none" x="418.4238" width="421.8125" height="30" y="878.0258" clip-path="url(#clipPath2)"/>
    </g>
    <g fill="rgb(255,204,153)" transform="matrix(1,0,0,1,15,15)" stroke="rgb(255,204,153)">
      <rect x="418.4238" width="479.3398" height="30" y="825" clip-path="url(#clipPath2)" stroke="none"/>
    </g>
    <g stroke-miterlimit="1.45" font-family="sans-serif" transform="matrix(1,0,0,1,15,15)" stroke-linecap="butt">
      <text x="425.4238" xml:space="preserve" y="844.1562" clip-path="url(#clipPath2)" stroke="none">com.anrisoftware.sscontrol:sscontrol-workers-text:jar:1.0-SNAPSHOT:compile</text>
      <rect fill="none" x="418.4238" width="479.3398" height="30" y="825" clip-path="url(#clipPath2)"/>
    </g>
    <g fill="rgb(255,204,153)" transform="matrix(1,0,0,1,15,15)" stroke="rgb(255,204,153)">
      <rect x="937.7637" width="451.1152" height="30" y="875" clip-path="url(#clipPath2)" stroke="none"/>
    </g>
    <g stroke-miterlimit="1.45" font-family="sans-serif" transform="matrix(1,0,0,1,15,15)" stroke-linecap="butt">
      <text x="944.7637" xml:space="preserve" y="894.1562" clip-path="url(#clipPath2)" stroke="none">com.anrisoftware.sscontrol:sscontrol-workers:jar:0.1-SNAPSHOT:compile</text>
      <rect fill="none" x="937.7637" width="451.1152" height="30" y="875" clip-path="url(#clipPath2)"/>
    </g>
    <g fill="rgb(204,204,255)" transform="matrix(1,0,0,1,15,15)" stroke="rgb(204,204,255)">
      <rect x="937.7637" width="259.2207" height="30" y="825" clip-path="url(#clipPath2)" stroke="none"/>
    </g>
    <g stroke-miterlimit="1.45" font-family="sans-serif" transform="matrix(1,0,0,1,15,15)" stroke-linecap="butt">
      <text x="944.7637" xml:space="preserve" y="844.1562" clip-path="url(#clipPath2)" stroke="none">commons-io:commons-io:jar:2.4:compile</text>
      <rect fill="none" x="937.7637" width="259.2207" height="30" y="825" clip-path="url(#clipPath2)"/>
    </g>
    <g fill="rgb(204,204,255)" transform="matrix(1,0,0,1,15,15)" stroke="rgb(204,204,255)">
      <rect x="937.7637" width="406.7773" height="30" y="775" clip-path="url(#clipPath2)" stroke="none"/>
    </g>
    <g stroke-miterlimit="1.45" font-family="sans-serif" transform="matrix(1,0,0,1,15,15)" stroke-linecap="butt">
      <text x="944.7637" xml:space="preserve" y="794.1562" clip-path="url(#clipPath2)" stroke="none">com.google.inject.extensions:guice-assistedinject:jar:3.0:compile</text>
      <rect fill="none" x="937.7637" width="406.7773" height="30" y="775" clip-path="url(#clipPath2)"/>
    </g>
    <g fill="rgb(204,204,255)" transform="matrix(1,0,0,1,15,15)" stroke="rgb(204,204,255)">
      <rect x="1384.541" width="251.5625" height="30" y="775" clip-path="url(#clipPath2)" stroke="none"/>
    </g>
    <g stroke-miterlimit="1.45" font-family="sans-serif" transform="matrix(1,0,0,1,15,15)" stroke-linecap="butt">
      <text x="1391.541" xml:space="preserve" y="794.1562" clip-path="url(#clipPath2)" stroke="none">com.google.inject:guice:jar:3.0:compile</text>
      <rect fill="none" x="1384.541" width="251.5625" height="30" y="775" clip-path="url(#clipPath2)"/>
    </g>
    <g fill="rgb(204,204,255)" transform="matrix(1,0,0,1,15,15)" stroke="rgb(204,204,255)">
      <rect x="1676.1035" width="238.7598" height="30" y="800" clip-path="url(#clipPath2)" stroke="none"/>
    </g>
    <g stroke-miterlimit="1.45" font-family="sans-serif" transform="matrix(1,0,0,1,15,15)" stroke-linecap="butt">
      <text x="1683.1035" xml:space="preserve" y="819.1562" clip-path="url(#clipPath2)" stroke="none">javax.inject:javax.inject:jar:1:compile</text>
      <rect fill="none" x="1676.1035" width="238.7598" height="30" y="800" clip-path="url(#clipPath2)"/>
    </g>
    <g fill="rgb(204,204,255)" transform="matrix(1,0,0,1,15,15)" stroke="rgb(204,204,255)">
      <rect x="1676.1035" width="249.3887" height="30" y="750" clip-path="url(#clipPath2)" stroke="none"/>
    </g>
    <g stroke-miterlimit="1.45" font-family="sans-serif" transform="matrix(1,0,0,1,15,15)" stroke-linecap="butt">
      <text x="1683.1035" xml:space="preserve" y="769.1562" clip-path="url(#clipPath2)" stroke="none">aopalliance:aopalliance:jar:1.0:compile</text>
      <rect fill="none" x="1676.1035" width="249.3887" height="30" y="750" clip-path="url(#clipPath2)"/>
    </g>
    <g fill="rgb(255,204,153)" transform="matrix(1,0,0,1,15,15)" stroke="rgb(255,204,153)">
      <rect x="418.4238" width="515.3398" height="30" y="650" clip-path="url(#clipPath2)" stroke="none"/>
    </g>
    <g stroke-miterlimit="1.45" font-family="sans-serif" transform="matrix(1,0,0,1,15,15)" stroke-linecap="butt">
      <text x="425.4238" xml:space="preserve" y="669.1562" clip-path="url(#clipPath2)" stroke="none">com.anrisoftware.sscontrol:sscontrol-workers-command:jar:1.0-SNAPSHOT:compile</text>
      <rect fill="none" x="418.4238" width="515.3398" height="30" y="650" clip-path="url(#clipPath2)"/>
    </g>
    <g fill="rgb(204,204,255)" transform="matrix(1,0,0,1,15,15)" stroke="rgb(204,204,255)">
      <rect x="973.7637" width="333.4355" height="30" y="725" clip-path="url(#clipPath2)" stroke="none"/>
    </g>
    <g stroke-miterlimit="1.45" font-family="sans-serif" transform="matrix(1,0,0,1,15,15)" stroke-linecap="butt">
      <text x="980.7637" xml:space="preserve" y="744.1562" clip-path="url(#clipPath2)" stroke="none">org.apache.commons:commons-exec:jar:1.1:compile</text>
      <rect fill="none" x="973.7637" width="333.4355" height="30" y="725" clip-path="url(#clipPath2)"/>
    </g>
    <g fill="rgb(204,255,255)" transform="matrix(1,0,0,1,15,15)" stroke="rgb(204,255,255)">
      <rect x="973.7637" width="360.6641" height="30" y="675" clip-path="url(#clipPath2)" stroke="none"/>
    </g>
    <g stroke-miterlimit="1.45" font-family="sans-serif" transform="matrix(1,0,0,1,15,15)" stroke-linecap="butt">
      <text x="980.7637" xml:space="preserve" y="694.1562" clip-path="url(#clipPath2)" stroke="none">com.anrisoftware.resources:resources-api:jar:1.7:compile</text>
      <rect fill="none" x="973.7637" width="360.6641" height="30" y="675" clip-path="url(#clipPath2)"/>
    </g>
    <g fill="rgb(204,255,255)" transform="matrix(1,0,0,1,15,15)" stroke="rgb(204,255,255)">
      <rect x="1374.4277" width="376.7188" height="30" y="675" clip-path="url(#clipPath2)" stroke="none"/>
    </g>
    <g stroke-miterlimit="1.45" font-family="sans-serif" transform="matrix(1,0,0,1,15,15)" stroke-linecap="butt">
      <text x="1381.4277" xml:space="preserve" y="694.1562" clip-path="url(#clipPath2)" stroke="none">com.anrisoftware.globalpom:globalpom-utils:jar:1.3:compile</text>
      <rect fill="none" x="1374.4277" width="376.7188" height="30" y="675" clip-path="url(#clipPath2)"/>
    </g>
    <g fill="rgb(204,255,255)" transform="matrix(1,0,0,1,15,15)" stroke="rgb(204,255,255)">
      <rect x="973.7637" width="505.3965" height="30" y="625" clip-path="url(#clipPath2)" stroke="none"/>
    </g>
    <g stroke-miterlimit="1.45" font-family="sans-serif" transform="matrix(1,0,0,1,15,15)" stroke-linecap="butt">
      <text x="980.7637" xml:space="preserve" y="644.1562" clip-path="url(#clipPath2)" stroke="none">com.anrisoftware.propertiesutils:propertiesutils-contextproperties:jar:1.5:compile</text>
      <rect fill="none" x="973.7637" width="505.3965" height="30" y="625" clip-path="url(#clipPath2)"/>
    </g>
    <g fill="rgb(204,204,255)" transform="matrix(1,0,0,1,15,15)" stroke="rgb(204,204,255)">
      <rect x="973.7637" width="406.3203" height="30" y="575" clip-path="url(#clipPath2)" stroke="none"/>
    </g>
    <g stroke-miterlimit="1.45" font-family="sans-serif" transform="matrix(1,0,0,1,15,15)" stroke-linecap="butt">
      <text x="980.7637" xml:space="preserve" y="594.1562" clip-path="url(#clipPath2)" stroke="none">com.google.inject.extensions:guice-multibindings:jar:3.0:compile</text>
      <rect fill="none" x="973.7637" width="406.3203" height="30" y="575" clip-path="url(#clipPath2)"/>
    </g>
    <g fill="rgb(204,204,255)" transform="matrix(1,0,0,1,15,15)" stroke="rgb(204,204,255)">
      <rect x="418.4238" width="338.5156" height="30" y="600" clip-path="url(#clipPath2)" stroke="none"/>
    </g>
    <g stroke-miterlimit="1.45" font-family="sans-serif" transform="matrix(1,0,0,1,15,15)" stroke-linecap="butt">
      <text x="425.4238" xml:space="preserve" y="619.1562" clip-path="url(#clipPath2)" stroke="none">org.apache.commons:commons-lang3:jar:3.1:compile</text>
      <rect fill="none" x="418.4238" width="338.5156" height="30" y="600" clip-path="url(#clipPath2)"/>
    </g>
    <g fill="rgb(204,204,255)" transform="matrix(1,0,0,1,15,15)" stroke="rgb(204,204,255)">
      <rect x="418.4238" width="291.7754" height="30" y="425" clip-path="url(#clipPath2)" stroke="none"/>
    </g>
    <g stroke-miterlimit="1.45" font-family="sans-serif" transform="matrix(1,0,0,1,15,15)" stroke-linecap="butt">
      <text x="425.4238" xml:space="preserve" y="444.1562" clip-path="url(#clipPath2)" stroke="none">org.codehaus.groovy:groovy:jar:2.1.1:compile</text>
      <rect fill="none" x="418.4238" width="291.7754" height="30" y="425" clip-path="url(#clipPath2)"/>
    </g>
    <g fill="rgb(204,204,255)" transform="matrix(1,0,0,1,15,15)" stroke="rgb(204,204,255)">
      <rect x="750.1992" width="179.4863" height="30" y="550" clip-path="url(#clipPath2)" stroke="none"/>
    </g>
    <g stroke-miterlimit="1.45" font-family="sans-serif" transform="matrix(1,0,0,1,15,15)" stroke-linecap="butt">
      <text x="757.1992" xml:space="preserve" y="569.1562" clip-path="url(#clipPath2)" stroke="none">antlr:antlr:jar:2.7.7:compile</text>
      <rect fill="none" x="750.1992" width="179.4863" height="30" y="550" clip-path="url(#clipPath2)"/>
    </g>
    <g fill="rgb(204,204,255)" transform="matrix(1,0,0,1,15,15)" stroke="rgb(204,204,255)">
      <rect x="750.1992" width="243.8105" height="30" y="500" clip-path="url(#clipPath2)" stroke="none"/>
    </g>
    <g stroke-miterlimit="1.45" font-family="sans-serif" transform="matrix(1,0,0,1,15,15)" stroke-linecap="butt">
      <text x="757.1992" xml:space="preserve" y="519.1562" clip-path="url(#clipPath2)" stroke="none">org.ow2.asm:asm-tree:jar:4.0:compile</text>
      <rect fill="none" x="750.1992" width="243.8105" height="30" y="500" clip-path="url(#clipPath2)"/>
    </g>
    <g fill="rgb(204,204,255)" transform="matrix(1,0,0,1,15,15)" stroke="rgb(204,204,255)">
      <rect x="750.1992" width="277.9238" height="30" y="450" clip-path="url(#clipPath2)" stroke="none"/>
    </g>
    <g stroke-miterlimit="1.45" font-family="sans-serif" transform="matrix(1,0,0,1,15,15)" stroke-linecap="butt">
      <text x="757.1992" xml:space="preserve" y="469.1562" clip-path="url(#clipPath2)" stroke="none">org.ow2.asm:asm-commons:jar:4.0:compile</text>
      <rect fill="none" x="750.1992" width="277.9238" height="30" y="450" clip-path="url(#clipPath2)"/>
    </g>
    <g fill="rgb(204,204,255)" transform="matrix(1,0,0,1,15,15)" stroke="rgb(204,204,255)">
      <rect x="750.1992" width="215.0762" height="30" y="400" clip-path="url(#clipPath2)" stroke="none"/>
    </g>
    <g stroke-miterlimit="1.45" font-family="sans-serif" transform="matrix(1,0,0,1,15,15)" stroke-linecap="butt">
      <text x="757.1992" xml:space="preserve" y="419.1562" clip-path="url(#clipPath2)" stroke="none">org.ow2.asm:asm:jar:4.0:compile</text>
      <rect fill="none" x="750.1992" width="215.0762" height="30" y="400" clip-path="url(#clipPath2)"/>
    </g>
    <g fill="rgb(204,204,255)" transform="matrix(1,0,0,1,15,15)" stroke="rgb(204,204,255)">
      <rect x="750.1992" width="238.3848" height="30" y="350" clip-path="url(#clipPath2)" stroke="none"/>
    </g>
    <g stroke-miterlimit="1.45" font-family="sans-serif" transform="matrix(1,0,0,1,15,15)" stroke-linecap="butt">
      <text x="757.1992" xml:space="preserve" y="369.1562" clip-path="url(#clipPath2)" stroke="none">org.ow2.asm:asm-util:jar:4.0:compile</text>
      <rect fill="none" x="750.1992" width="238.3848" height="30" y="350" clip-path="url(#clipPath2)"/>
    </g>
    <g fill="rgb(204,204,255)" transform="matrix(1,0,0,1,15,15)" stroke="rgb(204,204,255)">
      <rect x="750.1992" width="267.9922" height="30" y="300" clip-path="url(#clipPath2)" stroke="none"/>
    </g>
    <g stroke-miterlimit="1.45" font-family="sans-serif" transform="matrix(1,0,0,1,15,15)" stroke-linecap="butt">
      <text x="757.1992" xml:space="preserve" y="319.1562" clip-path="url(#clipPath2)" stroke="none">org.ow2.asm:asm-analysis:jar:4.0:compile</text>
      <rect fill="none" x="750.1992" width="267.9922" height="30" y="300" clip-path="url(#clipPath2)"/>
    </g>
    <g fill="rgb(204,204,255)" transform="matrix(1,0,0,1,15,15)" stroke="rgb(204,204,255)">
      <rect x="418.4238" width="376.9707" height="30" y="250" clip-path="url(#clipPath2)" stroke="none"/>
    </g>
    <g stroke-miterlimit="1.45" font-family="sans-serif" transform="matrix(1,0,0,1,15,15)" stroke-linecap="butt">
      <text x="425.4238" xml:space="preserve" y="269.1562" clip-path="url(#clipPath2)" stroke="none">commons-collections:commons-collections:jar:3.2.1:compile</text>
      <rect fill="none" x="418.4238" width="376.9707" height="30" y="250" clip-path="url(#clipPath2)"/>
    </g>
    <g fill="rgb(204,255,255)" transform="matrix(1,0,0,1,15,15)" stroke="rgb(204,255,255)">
      <rect x="418.4238" width="381.2305" height="30" y="200" clip-path="url(#clipPath2)" stroke="none"/>
    </g>
    <g stroke-miterlimit="1.45" font-family="sans-serif" transform="matrix(1,0,0,1,15,15)" stroke-linecap="butt">
      <text x="425.4238" xml:space="preserve" y="219.1562" clip-path="url(#clipPath2)" stroke="none">com.anrisoftware.globalpom:globalpom-log:jar:1.9.1:compile</text>
      <rect fill="none" x="418.4238" width="381.2305" height="30" y="200" clip-path="url(#clipPath2)"/>
    </g>
    <g fill="rgb(204,255,255)" transform="matrix(1,0,0,1,15,15)" stroke="rgb(204,255,255)">
      <rect x="418.4238" width="402.7812" height="30" y="150" clip-path="url(#clipPath2)" stroke="none"/>
    </g>
    <g stroke-miterlimit="1.45" font-family="sans-serif" transform="matrix(1,0,0,1,15,15)" stroke-linecap="butt">
      <text x="425.4238" xml:space="preserve" y="169.1562" clip-path="url(#clipPath2)" stroke="none">com.anrisoftware.resources:resources-templates:jar:1.2:compile</text>
      <rect fill="none" x="418.4238" width="402.7812" height="30" y="150" clip-path="url(#clipPath2)"/>
    </g>
    <g fill="rgb(204,255,255)" transform="matrix(1,0,0,1,15,15)" stroke="rgb(204,255,255)">
      <rect x="861.2051" width="403.2266" height="30" y="150" clip-path="url(#clipPath2)" stroke="none"/>
    </g>
    <g stroke-miterlimit="1.45" font-family="sans-serif" transform="matrix(1,0,0,1,15,15)" stroke-linecap="butt">
      <text x="868.2051" xml:space="preserve" y="169.1562" clip-path="url(#clipPath2)" stroke="none">com.anrisoftware.resources:resources-getbundle:jar:1.5:compile</text>
      <rect fill="none" x="861.2051" width="403.2266" height="30" y="150" clip-path="url(#clipPath2)"/>
    </g>
    <g fill="rgb(204,255,255)" transform="matrix(1,0,0,1,15,15)" stroke="rgb(204,255,255)">
      <rect x="418.4238" width="353.3164" height="30" y="100" clip-path="url(#clipPath2)" stroke="none"/>
    </g>
    <g stroke-miterlimit="1.45" font-family="sans-serif" transform="matrix(1,0,0,1,15,15)" stroke-linecap="butt">
      <text x="425.4238" xml:space="preserve" y="119.1562" clip-path="url(#clipPath2)" stroke="none">com.anrisoftware.resources:resources-st:jar:1.4:compile</text>
      <rect fill="none" x="418.4238" width="353.3164" height="30" y="100" clip-path="url(#clipPath2)"/>
    </g>
    <g fill="rgb(204,204,255)" transform="matrix(1,0,0,1,15,15)" stroke="rgb(204,204,255)">
      <rect x="811.7402" width="197.8438" height="30" y="100" clip-path="url(#clipPath2)" stroke="none"/>
    </g>
    <g stroke-miterlimit="1.45" font-family="sans-serif" transform="matrix(1,0,0,1,15,15)" stroke-linecap="butt">
      <text x="818.7402" xml:space="preserve" y="119.1562" clip-path="url(#clipPath2)" stroke="none">org.antlr:ST4:jar:4.0.4:compile</text>
      <rect fill="none" x="811.7402" width="197.8438" height="30" y="100" clip-path="url(#clipPath2)"/>
    </g>
    <g fill="rgb(204,204,255)" transform="matrix(1,0,0,1,15,15)" stroke="rgb(204,204,255)">
      <rect x="1049.584" width="243.3301" height="30" y="100" clip-path="url(#clipPath2)" stroke="none"/>
    </g>
    <g stroke-miterlimit="1.45" font-family="sans-serif" transform="matrix(1,0,0,1,15,15)" stroke-linecap="butt">
      <text x="1056.584" xml:space="preserve" y="119.1562" clip-path="url(#clipPath2)" stroke="none">org.antlr:antlr-runtime:jar:3.3:compile</text>
      <rect fill="none" x="1049.584" width="243.3301" height="30" y="100" clip-path="url(#clipPath2)"/>
    </g>
    <g fill="rgb(204,204,255)" transform="matrix(1,0,0,1,15,15)" stroke="rgb(204,204,255)">
      <rect x="1332.9141" width="263.8789" height="30" y="100" clip-path="url(#clipPath2)" stroke="none"/>
    </g>
    <g stroke-miterlimit="1.45" font-family="sans-serif" transform="matrix(1,0,0,1,15,15)" stroke-linecap="butt">
      <text x="1339.9141" xml:space="preserve" y="119.1562" clip-path="url(#clipPath2)" stroke="none">org.antlr:stringtemplate:jar:3.2.1:compile</text>
      <rect fill="none" x="1332.9141" width="263.8789" height="30" y="100" clip-path="url(#clipPath2)"/>
    </g>
    <g fill="rgb(204,255,255)" transform="matrix(1,0,0,1,15,15)" stroke="rgb(204,255,255)">
      <rect x="418.4238" width="372.5059" height="30" y="50" clip-path="url(#clipPath2)" stroke="none"/>
    </g>
    <g stroke-miterlimit="1.45" font-family="sans-serif" transform="matrix(1,0,0,1,15,15)" stroke-linecap="butt">
      <text x="425.4238" xml:space="preserve" y="69.1562" clip-path="url(#clipPath2)" stroke="none">com.anrisoftware.resources:resources-texts:jar:1.4:compile</text>
      <rect fill="none" x="418.4238" width="372.5059" height="30" y="50" clip-path="url(#clipPath2)"/>
    </g>
    <g fill="rgb(204,255,255)" transform="matrix(1,0,0,1,15,15)" stroke="rgb(204,255,255)">
      <rect x="830.9297" width="380.3047" height="30" y="50" clip-path="url(#clipPath2)" stroke="none"/>
    </g>
    <g stroke-miterlimit="1.45" font-family="sans-serif" transform="matrix(1,0,0,1,15,15)" stroke-linecap="butt">
      <text x="837.9297" xml:space="preserve" y="69.1562" clip-path="url(#clipPath2)" stroke="none">com.anrisoftware.resources:resources-binary:jar:1.6:compile</text>
      <rect fill="none" x="830.9297" width="380.3047" height="30" y="50" clip-path="url(#clipPath2)"/>
    </g>
    <g fill="rgb(204,204,255)" transform="matrix(1,0,0,1,15,15)" stroke="rgb(204,204,255)">
      <rect x="418.4238" width="219.5234" height="30" y="0" clip-path="url(#clipPath2)" stroke="none"/>
    </g>
    <g stroke-miterlimit="1.45" font-family="sans-serif" transform="matrix(1,0,0,1,15,15)" stroke-linecap="butt">
      <text x="425.4238" xml:space="preserve" y="19.1562" clip-path="url(#clipPath2)" stroke="none">org.slf4j:slf4j-api:jar:1.6.6:compile</text>
      <rect fill="none" x="418.4238" width="219.5234" height="30" y="0" clip-path="url(#clipPath2)"/>
      <path fill="none" d="M199.7239 280 L618.8181 878.0258" clip-path="url(#clipPath2)"/>
      <path fill="none" d="M201.4436 280 L645.8621 825" clip-path="url(#clipPath2)"/>
      <path fill="none" d="M809.662 855 L1011.7531 875" clip-path="url(#clipPath2)"/>
      <path fill="none" d="M897.7637 840 L937.7637 840" clip-path="url(#clipPath2)"/>
      <path fill="none" d="M803.0114 825 L996.2347 805" clip-path="url(#clipPath2)"/>
      <path fill="none" d="M1344.541 790 L1384.541 790" clip-path="url(#clipPath2)"/>
      <path fill="none" d="M1636.1035 801.0272 L1676.1035 804.534" clip-path="url(#clipPath2)"/>
      <path fill="none" d="M1636.1035 779.1746 L1676.1035 775.7319" clip-path="url(#clipPath2)"/>
      <path fill="none" d="M207.47 280 L657.8357 650" clip-path="url(#clipPath2)"/>
      <path fill="none" d="M768.9713 680 L1047.6039 725" clip-path="url(#clipPath2)"/>
      <path fill="none" d="M933.7637 678.4764 L973.7637 680.5684" clip-path="url(#clipPath2)"/>
      <path fill="none" d="M1334.4277 690 L1374.4277 690" clip-path="url(#clipPath2)"/>
      <path fill="none" d="M933.7637 653.2956 L973.7637 651.4786" clip-path="url(#clipPath2)"/>
      <path fill="none" d="M776.2598 650 L1076.7578 605" clip-path="url(#clipPath2)"/>
      <path fill="none" d="M206.2892 280 L570.6044 600" clip-path="url(#clipPath2)"/>
      <text x="402.6754" xml:space="preserve" y="444.1562" clip-path="url(#clipPath2)" stroke="none">compile</text>
      <path fill="none" d="M221.3633 280 L532.1602 425" clip-path="url(#clipPath2)"/>
      <path fill="none" d="M597.3872 455 L806.8667 550" clip-path="url(#clipPath2)"/>
      <path fill="none" d="M625.8701 455 L810.5459 500" clip-path="url(#clipPath2)"/>
      <path fill="none" d="M710.1992 451.2273 L750.1992 454.3057" clip-path="url(#clipPath2)"/>
      <path fill="none" d="M710.1992 427.5703 L750.1992 424.1623" clip-path="url(#clipPath2)"/>
      <path fill="none" d="M625.3275 425 L808.3756 380" clip-path="url(#clipPath2)"/>
      <path fill="none" d="M602.6976 425 L845.8093 330" clip-path="url(#clipPath2)"/>
      <path fill="none" d="M378.4238 265 L418.4238 265" clip-path="url(#clipPath2)"/>
      <path fill="none" d="M315.1601 250 L483.0909 230" clip-path="url(#clipPath2)"/>
      <path fill="none" d="M253.8023 250 L555.2241 180" clip-path="url(#clipPath2)"/>
      <path fill="none" d="M821.2051 165 L861.2051 165" clip-path="url(#clipPath2)"/>
      <path fill="none" d="M229.7989 250 L554.495 130" clip-path="url(#clipPath2)"/>
      <path fill="none" d="M771.7402 115 L811.7402 115" clip-path="url(#clipPath2)"/>
      <path fill="none" d="M1009.584 115 L1049.584 115" clip-path="url(#clipPath2)"/>
      <path fill="none" d="M1292.9141 115 L1332.9141 115" clip-path="url(#clipPath2)"/>
      <path fill="none" d="M220.3718 250 L573.5169 80" clip-path="url(#clipPath2)"/>
      <path fill="none" d="M790.9297 65 L830.9297 65" clip-path="url(#clipPath2)"/>
      <path fill="none" d="M209.5503 250 L507.8471 30" clip-path="url(#clipPath2)"/>
    </g>
  </g>
</svg>
