<?xml version="1.0" encoding="UTF-8"?><svg xmlns="http://www.w3.org/2000/svg" xmlns:xlink="http://www.w3.org/1999/xlink" fill-opacity="1" color-rendering="auto" color-interpolation="auto" stroke="black" text-rendering="auto" stroke-linecap="square" width="769" stroke-miterlimit="10" stroke-opacity="1" shape-rendering="auto" fill="black" stroke-dasharray="none" font-weight="normal" stroke-width="1" height="120" font-family="'Dialog'" font-style="normal" stroke-linejoin="miter" font-size="12" stroke-dashoffset="0" image-rendering="auto">
  <!--Generated by ySVG-->
  <defs id="genericDefs"/>
  <g>
    <defs id="defs1">
      <clipPath clipPathUnits="userSpaceOnUse" id="clipPath1">
        <path d="M0 0 L769 0 L769 120 L0 120 L0 0 Z"/>
      </clipPath>
      <clipPath clipPathUnits="userSpaceOnUse" id="clipPath2">
        <path d="M-15 -120 L754 -120 L754 0 L-15 0 L-15 -120 Z"/>
      </clipPath>
    </defs>
    <g fill="white" transform="translate(15,120)" stroke="white">
      <rect x="-15" width="769" height="120" y="-120" clip-path="url(#clipPath2)" stroke="none"/>
    </g>
    <g fill="rgb(255,204,153)" transform="matrix(1,0,0,1,15,120)" stroke="rgb(255,204,153)">
      <rect x="0" width="370.4727" height="30" y="-75" clip-path="url(#clipPath2)" stroke="none"/>
    </g>
    <g stroke-miterlimit="1.45" font-family="sans-serif" transform="matrix(1,0,0,1,15,120)" stroke-linecap="butt">
      <text x="7" xml:space="preserve" y="-55.8438" clip-path="url(#clipPath2)" stroke="none">com.anrisoftware.sscontrol:sscontrol-api:jar:0.1-SNAPSHOT</text>
      <rect fill="none" x="0" width="370.4727" height="30" y="-75" clip-path="url(#clipPath2)"/>
    </g>
    <g fill="rgb(204,204,255)" transform="matrix(1,0,0,1,15,120)" stroke="rgb(204,204,255)">
      <rect x="400.4727" width="338.5156" height="30" y="-45" clip-path="url(#clipPath2)" stroke="none"/>
    </g>
    <g stroke-miterlimit="1.45" font-family="sans-serif" transform="matrix(1,0,0,1,15,120)" stroke-linecap="butt">
      <text x="407.4727" xml:space="preserve" y="-25.8438" clip-path="url(#clipPath2)" stroke="none">org.apache.commons:commons-lang3:jar:3.1:compile</text>
      <rect fill="none" x="400.4727" width="338.5156" height="30" y="-45" clip-path="url(#clipPath2)"/>
    </g>
    <g fill="rgb(204,204,255)" transform="matrix(1,0,0,1,15,120)" stroke="rgb(204,204,255)">
      <rect x="459.9688" width="219.5234" height="30" y="-105" clip-path="url(#clipPath2)" stroke="none"/>
    </g>
    <g stroke-miterlimit="1.45" font-family="sans-serif" transform="matrix(1,0,0,1,15,120)" stroke-linecap="butt">
      <text x="466.9688" xml:space="preserve" y="-85.8438" clip-path="url(#clipPath2)" stroke="none">org.slf4j:slf4j-api:jar:1.6.6:compile</text>
      <rect fill="none" x="459.9688" width="219.5234" height="30" y="-105" clip-path="url(#clipPath2)"/>
      <path fill="none" d="M370.4727 -52.5 L385.4727 -52.5 L385.4727 -30 L400.4434 -30" clip-path="url(#clipPath2)"/>
      <path fill="none" d="M370.4727 -67.5 L385.4727 -67.5 L385.4727 -90 L459.9324 -90" clip-path="url(#clipPath2)"/>
    </g>
  </g>
</svg>
