<?xml version="1.0" encoding="UTF-8"?><svg xmlns="http://www.w3.org/2000/svg" xmlns:xlink="http://www.w3.org/1999/xlink" fill-opacity="1" color-rendering="auto" color-interpolation="auto" stroke="black" text-rendering="auto" stroke-linecap="square" width="809" stroke-miterlimit="10" stroke-opacity="1" shape-rendering="auto" fill="black" stroke-dasharray="none" font-weight="normal" stroke-width="1" height="110" font-family="'Dialog'" font-style="normal" stroke-linejoin="miter" font-size="12" stroke-dashoffset="0" image-rendering="auto">
  <!--Generated by ySVG-->
  <defs id="genericDefs"/>
  <g>
    <defs id="defs1">
      <clipPath clipPathUnits="userSpaceOnUse" id="clipPath1">
        <path d="M0 0 L809 0 L809 110 L0 110 L0 0 Z"/>
      </clipPath>
      <clipPath clipPathUnits="userSpaceOnUse" id="clipPath2">
        <path d="M-15 -15 L794 -15 L794 95 L-15 95 L-15 -15 Z"/>
      </clipPath>
    </defs>
    <g fill="white" transform="translate(15,15)" stroke="white">
      <rect x="-15" width="809" height="110" y="-15" clip-path="url(#clipPath2)" stroke="none"/>
    </g>
    <g fill="rgb(255,204,153)" transform="matrix(1,0,0,1,15,15)" stroke="rgb(255,204,153)">
      <rect x="0" width="399.7754" height="30" y="25" clip-path="url(#clipPath2)" stroke="none"/>
    </g>
    <g stroke-miterlimit="1.45" font-family="sans-serif" transform="matrix(1,0,0,1,15,15)" stroke-linecap="butt">
      <text x="7" xml:space="preserve" y="44.1562" clip-path="url(#clipPath2)" stroke="none">com.anrisoftware.sscontrol:sscontrol-workers:jar:0.1-SNAPSHOT</text>
      <rect fill="none" x="0" width="399.7754" height="30" y="25" clip-path="url(#clipPath2)"/>
    </g>
    <g fill="rgb(204,204,255)" transform="matrix(1,0,0,1,15,15)" stroke="rgb(204,204,255)">
      <rect x="439.7754" width="338.5156" height="30" y="50" clip-path="url(#clipPath2)" stroke="none"/>
    </g>
    <g stroke-miterlimit="1.45" font-family="sans-serif" transform="matrix(1,0,0,1,15,15)" stroke-linecap="butt">
      <text x="446.7754" xml:space="preserve" y="69.1562" clip-path="url(#clipPath2)" stroke="none">org.apache.commons:commons-lang3:jar:3.1:compile</text>
      <rect fill="none" x="439.7754" width="338.5156" height="30" y="50" clip-path="url(#clipPath2)"/>
    </g>
    <g fill="rgb(204,204,255)" transform="matrix(1,0,0,1,15,15)" stroke="rgb(204,204,255)">
      <rect x="439.7754" width="219.5234" height="30" y="0" clip-path="url(#clipPath2)" stroke="none"/>
    </g>
    <g stroke-miterlimit="1.45" font-family="sans-serif" transform="matrix(1,0,0,1,15,15)" stroke-linecap="butt">
      <text x="446.7754" xml:space="preserve" y="19.1562" clip-path="url(#clipPath2)" stroke="none">org.slf4j:slf4j-api:jar:1.6.6:compile</text>
      <rect fill="none" x="439.7754" width="219.5234" height="30" y="0" clip-path="url(#clipPath2)"/>
      <path fill="none" d="M199.8877 55 L199.8877 68.1716 L202.7161 71 L439.7465 71" clip-path="url(#clipPath2)"/>
      <path fill="none" d="M199.8877 24.9743 L199.8877 11.8284 L202.7161 9 L439.7465 9" clip-path="url(#clipPath2)"/>
    </g>
  </g>
</svg>
