<?xml version="1.0" encoding="UTF-8"?><svg xmlns="http://www.w3.org/2000/svg" xmlns:xlink="http://www.w3.org/1999/xlink" fill-opacity="1" color-rendering="auto" color-interpolation="auto" stroke="black" text-rendering="auto" stroke-linecap="square" width="616" stroke-miterlimit="10" stroke-opacity="1" shape-rendering="auto" fill="black" stroke-dasharray="none" font-weight="normal" stroke-width="1" height="60" font-family="'Dialog'" font-style="normal" stroke-linejoin="miter" font-size="12" stroke-dashoffset="0" image-rendering="auto">
  <!--Generated by ySVG-->
  <defs id="genericDefs"/>
  <g>
    <defs id="defs1">
      <clipPath clipPathUnits="userSpaceOnUse" id="clipPath1">
        <path d="M0 0 L616 0 L616 60 L0 60 L0 0 Z"/>
      </clipPath>
      <clipPath clipPathUnits="userSpaceOnUse" id="clipPath2">
        <path d="M-15 -15 L601 -15 L601 45 L-15 45 L-15 -15 Z"/>
      </clipPath>
    </defs>
    <g fill="white" transform="translate(15,15)" stroke="white">
      <rect x="-15" width="616" height="60" y="-15" clip-path="url(#clipPath2)" stroke="none"/>
    </g>
    <g fill="rgb(255,204,153)" transform="matrix(1,0,0,1,15,15)" stroke="rgb(255,204,153)">
      <rect x="0" width="326.0762" height="30" y="0" clip-path="url(#clipPath2)" stroke="none"/>
    </g>
    <g stroke-miterlimit="1.45" font-family="sans-serif" transform="matrix(1,0,0,1,15,15)" stroke-linecap="butt">
      <text x="7" xml:space="preserve" y="19.1562" clip-path="url(#clipPath2)" stroke="none">com.anrisoftware.globalpom:globalpom-log:jar:1.10</text>
      <rect fill="none" x="0" width="326.0762" height="30" y="0" clip-path="url(#clipPath2)"/>
    </g>
    <g fill="rgb(204,204,255)" transform="matrix(1,0,0,1,15,15)" stroke="rgb(204,204,255)">
      <rect x="366.0762" width="219.5234" height="30" y="0" clip-path="url(#clipPath2)" stroke="none"/>
    </g>
    <g stroke-miterlimit="1.45" font-family="sans-serif" transform="matrix(1,0,0,1,15,15)" stroke-linecap="butt">
      <text x="373.0762" xml:space="preserve" y="19.1562" clip-path="url(#clipPath2)" stroke="none">org.slf4j:slf4j-api:jar:1.7.5:compile</text>
      <rect fill="none" x="366.0762" width="219.5234" height="30" y="0" clip-path="url(#clipPath2)"/>
      <path fill="none" d="M326.0762 15 L366.0762 15" clip-path="url(#clipPath2)"/>
    </g>
  </g>
</svg>
