<?xml version="1.0" encoding="UTF-8"?><svg xmlns="http://www.w3.org/2000/svg" xmlns:xlink="http://www.w3.org/1999/xlink" fill-opacity="1" color-rendering="auto" color-interpolation="auto" stroke="black" text-rendering="auto" stroke-linecap="square" width="1522" stroke-miterlimit="10" stroke-opacity="1" shape-rendering="auto" fill="black" stroke-dasharray="none" font-weight="normal" stroke-width="1" height="535" font-family="'Dialog'" font-style="normal" stroke-linejoin="miter" font-size="12" stroke-dashoffset="0" image-rendering="auto">
  <!--Generated by ySVG-->
  <defs id="genericDefs"/>
  <g>
    <defs id="defs1">
      <clipPath clipPathUnits="userSpaceOnUse" id="clipPath1">
        <path d="M0 0 L1522 0 L1522 535 L0 535 L0 0 Z"/>
      </clipPath>
      <clipPath clipPathUnits="userSpaceOnUse" id="clipPath2">
        <path d="M-15 -15 L1507 -15 L1507 520 L-15 520 L-15 -15 Z"/>
      </clipPath>
    </defs>
    <g fill="white" transform="translate(15,15)" stroke="white">
      <rect x="-15" width="1522" height="535" y="-15" clip-path="url(#clipPath2)" stroke="none"/>
    </g>
    <g fill="rgb(255,204,153)" transform="matrix(1,0,0,1,15,15)" stroke="rgb(255,204,153)">
      <rect x="0" width="464" height="30" y="250" clip-path="url(#clipPath2)" stroke="none"/>
    </g>
    <g stroke-miterlimit="1.45" font-family="sans-serif" transform="matrix(1,0,0,1,15,15)" stroke-linecap="butt">
      <text x="7" xml:space="preserve" y="269.1562" clip-path="url(#clipPath2)" stroke="none">com.anrisoftware.sscontrol:sscontrol-workers-command:jar:1.0-SNAPSHOT</text>
      <rect fill="none" x="0" width="464" height="30" y="250" clip-path="url(#clipPath2)"/>
    </g>
    <g fill="rgb(255,204,153)" transform="matrix(1,0,0,1,15,15)" stroke="rgb(255,204,153)">
      <rect x="504" width="451.1152" height="30" y="0" clip-path="url(#clipPath2)" stroke="none"/>
    </g>
    <g stroke-miterlimit="1.45" font-family="sans-serif" transform="matrix(1,0,0,1,15,15)" stroke-linecap="butt">
      <text x="511" xml:space="preserve" y="19.1562" clip-path="url(#clipPath2)" stroke="none">com.anrisoftware.sscontrol:sscontrol-workers:jar:0.1-SNAPSHOT:compile</text>
      <rect fill="none" x="504" width="451.1152" height="30" y="0" clip-path="url(#clipPath2)"/>
    </g>
    <g fill="rgb(204,204,255)" transform="matrix(1,0,0,1,15,15)" stroke="rgb(204,204,255)">
      <rect x="504" width="406.7773" height="30" y="450" clip-path="url(#clipPath2)" stroke="none"/>
    </g>
    <g stroke-miterlimit="1.45" font-family="sans-serif" transform="matrix(1,0,0,1,15,15)" stroke-linecap="butt">
      <text x="511" xml:space="preserve" y="469.1562" clip-path="url(#clipPath2)" stroke="none">com.google.inject.extensions:guice-assistedinject:jar:3.0:compile</text>
      <rect fill="none" x="504" width="406.7773" height="30" y="450" clip-path="url(#clipPath2)"/>
    </g>
    <g fill="rgb(204,204,255)" transform="matrix(1,0,0,1,15,15)" stroke="rgb(204,204,255)">
      <rect x="950.7773" width="251.5625" height="30" y="450" clip-path="url(#clipPath2)" stroke="none"/>
    </g>
    <g stroke-miterlimit="1.45" font-family="sans-serif" transform="matrix(1,0,0,1,15,15)" stroke-linecap="butt">
      <text x="957.7773" xml:space="preserve" y="469.1562" clip-path="url(#clipPath2)" stroke="none">com.google.inject:guice:jar:3.0:compile</text>
      <rect fill="none" x="950.7773" width="251.5625" height="30" y="450" clip-path="url(#clipPath2)"/>
    </g>
    <g fill="rgb(204,204,255)" transform="matrix(1,0,0,1,15,15)" stroke="rgb(204,204,255)">
      <rect x="1242.3398" width="238.7598" height="30" y="475" clip-path="url(#clipPath2)" stroke="none"/>
    </g>
    <g stroke-miterlimit="1.45" font-family="sans-serif" transform="matrix(1,0,0,1,15,15)" stroke-linecap="butt">
      <text x="1249.3398" xml:space="preserve" y="494.1562" clip-path="url(#clipPath2)" stroke="none">javax.inject:javax.inject:jar:1:compile</text>
      <rect fill="none" x="1242.3398" width="238.7598" height="30" y="475" clip-path="url(#clipPath2)"/>
    </g>
    <g fill="rgb(204,204,255)" transform="matrix(1,0,0,1,15,15)" stroke="rgb(204,204,255)">
      <rect x="1242.3398" width="249.3887" height="30" y="425" clip-path="url(#clipPath2)" stroke="none"/>
    </g>
    <g stroke-miterlimit="1.45" font-family="sans-serif" transform="matrix(1,0,0,1,15,15)" stroke-linecap="butt">
      <text x="1249.3398" xml:space="preserve" y="444.1562" clip-path="url(#clipPath2)" stroke="none">aopalliance:aopalliance:jar:1.0:compile</text>
      <rect fill="none" x="1242.3398" width="249.3887" height="30" y="425" clip-path="url(#clipPath2)"/>
    </g>
    <g fill="rgb(204,204,255)" transform="matrix(1,0,0,1,15,15)" stroke="rgb(204,204,255)">
      <rect x="504" width="338.5156" height="30" y="400" clip-path="url(#clipPath2)" stroke="none"/>
    </g>
    <g stroke-miterlimit="1.45" font-family="sans-serif" transform="matrix(1,0,0,1,15,15)" stroke-linecap="butt">
      <text x="511" xml:space="preserve" y="419.1562" clip-path="url(#clipPath2)" stroke="none">org.apache.commons:commons-lang3:jar:3.1:compile</text>
      <rect fill="none" x="504" width="338.5156" height="30" y="400" clip-path="url(#clipPath2)"/>
    </g>
    <g fill="rgb(204,204,255)" transform="matrix(1,0,0,1,15,15)" stroke="rgb(204,204,255)">
      <rect x="504" width="333.4355" height="30" y="350" clip-path="url(#clipPath2)" stroke="none"/>
    </g>
    <g stroke-miterlimit="1.45" font-family="sans-serif" transform="matrix(1,0,0,1,15,15)" stroke-linecap="butt">
      <text x="511" xml:space="preserve" y="369.1562" clip-path="url(#clipPath2)" stroke="none">org.apache.commons:commons-exec:jar:1.1:compile</text>
      <rect fill="none" x="504" width="333.4355" height="30" y="350" clip-path="url(#clipPath2)"/>
    </g>
    <g fill="rgb(204,255,255)" transform="matrix(1,0,0,1,15,15)" stroke="rgb(204,255,255)">
      <rect x="504" width="381.2305" height="30" y="200" clip-path="url(#clipPath2)" stroke="none"/>
    </g>
    <g stroke-miterlimit="1.45" font-family="sans-serif" transform="matrix(1,0,0,1,15,15)" stroke-linecap="butt">
      <text x="511" xml:space="preserve" y="219.1562" clip-path="url(#clipPath2)" stroke="none">com.anrisoftware.globalpom:globalpom-log:jar:1.9.1:compile</text>
      <rect fill="none" x="504" width="381.2305" height="30" y="200" clip-path="url(#clipPath2)"/>
    </g>
    <g fill="rgb(204,255,255)" transform="matrix(1,0,0,1,15,15)" stroke="rgb(204,255,255)">
      <rect x="504" width="360.6641" height="30" y="150" clip-path="url(#clipPath2)" stroke="none"/>
    </g>
    <g stroke-miterlimit="1.45" font-family="sans-serif" transform="matrix(1,0,0,1,15,15)" stroke-linecap="butt">
      <text x="511" xml:space="preserve" y="169.1562" clip-path="url(#clipPath2)" stroke="none">com.anrisoftware.resources:resources-api:jar:1.7:compile</text>
      <rect fill="none" x="504" width="360.6641" height="30" y="150" clip-path="url(#clipPath2)"/>
    </g>
    <g fill="rgb(204,255,255)" transform="matrix(1,0,0,1,15,15)" stroke="rgb(204,255,255)">
      <rect x="904.6641" width="376.7188" height="30" y="150" clip-path="url(#clipPath2)" stroke="none"/>
    </g>
    <g stroke-miterlimit="1.45" font-family="sans-serif" transform="matrix(1,0,0,1,15,15)" stroke-linecap="butt">
      <text x="911.6641" xml:space="preserve" y="169.1562" clip-path="url(#clipPath2)" stroke="none">com.anrisoftware.globalpom:globalpom-utils:jar:1.3:compile</text>
      <rect fill="none" x="904.6641" width="376.7188" height="30" y="150" clip-path="url(#clipPath2)"/>
    </g>
    <g fill="rgb(204,255,255)" transform="matrix(1,0,0,1,15,15)" stroke="rgb(204,255,255)">
      <rect x="504" width="505.3965" height="30" y="100" clip-path="url(#clipPath2)" stroke="none"/>
    </g>
    <g stroke-miterlimit="1.45" font-family="sans-serif" transform="matrix(1,0,0,1,15,15)" stroke-linecap="butt">
      <text x="511" xml:space="preserve" y="119.1562" clip-path="url(#clipPath2)" stroke="none">com.anrisoftware.propertiesutils:propertiesutils-contextproperties:jar:1.5:compile</text>
      <rect fill="none" x="504" width="505.3965" height="30" y="100" clip-path="url(#clipPath2)"/>
    </g>
    <g fill="rgb(204,204,255)" transform="matrix(1,0,0,1,15,15)" stroke="rgb(204,204,255)">
      <rect x="504" width="406.3203" height="30" y="300" clip-path="url(#clipPath2)" stroke="none"/>
    </g>
    <g stroke-miterlimit="1.45" font-family="sans-serif" transform="matrix(1,0,0,1,15,15)" stroke-linecap="butt">
      <text x="511" xml:space="preserve" y="319.1562" clip-path="url(#clipPath2)" stroke="none">com.google.inject.extensions:guice-multibindings:jar:3.0:compile</text>
      <rect fill="none" x="504" width="406.3203" height="30" y="300" clip-path="url(#clipPath2)"/>
    </g>
    <g fill="rgb(204,255,255)" transform="matrix(1,0,0,1,15,15)" stroke="rgb(204,255,255)">
      <rect x="504" width="402.7812" height="30" y="50" clip-path="url(#clipPath2)" stroke="none"/>
    </g>
    <g stroke-miterlimit="1.45" font-family="sans-serif" transform="matrix(1,0,0,1,15,15)" stroke-linecap="butt">
      <text x="511" xml:space="preserve" y="69.1562" clip-path="url(#clipPath2)" stroke="none">com.anrisoftware.resources:resources-templates:jar:1.2:compile</text>
      <rect fill="none" x="504" width="402.7812" height="30" y="50" clip-path="url(#clipPath2)"/>
    </g>
    <g fill="rgb(204,255,255)" transform="matrix(1,0,0,1,15,15)" stroke="rgb(204,255,255)">
      <rect x="946.7812" width="403.2266" height="30" y="50" clip-path="url(#clipPath2)" stroke="none"/>
    </g>
    <g stroke-miterlimit="1.45" font-family="sans-serif" transform="matrix(1,0,0,1,15,15)" stroke-linecap="butt">
      <text x="953.7812" xml:space="preserve" y="69.1562" clip-path="url(#clipPath2)" stroke="none">com.anrisoftware.resources:resources-getbundle:jar:1.5:compile</text>
      <rect fill="none" x="946.7812" width="403.2266" height="30" y="50" clip-path="url(#clipPath2)"/>
    </g>
    <g fill="rgb(204,204,255)" transform="matrix(1,0,0,1,15,15)" stroke="rgb(204,204,255)">
      <rect x="504" width="219.5234" height="30" y="250" clip-path="url(#clipPath2)" stroke="none"/>
    </g>
    <g stroke-miterlimit="1.45" font-family="sans-serif" transform="matrix(1,0,0,1,15,15)" stroke-linecap="butt">
      <text x="511" xml:space="preserve" y="269.1562" clip-path="url(#clipPath2)" stroke="none">org.slf4j:slf4j-api:jar:1.6.6:compile</text>
      <rect fill="none" x="504" width="219.5234" height="30" y="250" clip-path="url(#clipPath2)"/>
      <path fill="none" d="M48.8 249.9739 L48.8 36.2132 L70.0132 15 L503.9735 15" clip-path="url(#clipPath2)"/>
      <path fill="none" d="M140.4 280 L140.4 443.7868 L161.6132 465 L503.9582 465" clip-path="url(#clipPath2)"/>
      <path fill="none" d="M910.7773 465 L950.7383 465" clip-path="url(#clipPath2)"/>
      <path fill="none" d="M1076.5586 480 L1076.5586 493.1716 L1079.387 496 L1242.3 496" clip-path="url(#clipPath2)"/>
      <path fill="none" d="M1076.5586 449.9743 L1076.5586 436.8284 L1079.387 434 L1242.3 434" clip-path="url(#clipPath2)"/>
      <path fill="none" d="M232 280 L232 393.7868 L253.2132 415 L503.9694 415" clip-path="url(#clipPath2)"/>
      <path fill="none" d="M323.6 280 L323.6 343.7868 L344.8132 365 L503.9612 365" clip-path="url(#clipPath2)"/>
      <path fill="none" d="M415.2 249.951 L415.2 224.8995 L425.0995 215 L503.9615 215" clip-path="url(#clipPath2)"/>
      <path fill="none" d="M323.6 249.9689 L323.6 186.2132 L344.8132 165 L503.9612 165" clip-path="url(#clipPath2)"/>
      <path fill="none" d="M864.6641 165 L904.625 165" clip-path="url(#clipPath2)"/>
      <path fill="none" d="M232 249.9722 L232 136.2132 L253.2132 115 L503.9694 115" clip-path="url(#clipPath2)"/>
      <path fill="none" d="M415.2 280 L415.2 305.1005 L425.0995 315 L503.9615 315" clip-path="url(#clipPath2)"/>
      <path fill="none" d="M140.4 249.96 L140.4 86.2132 L161.6132 65 L503.9582 65" clip-path="url(#clipPath2)"/>
      <path fill="none" d="M906.7812 65 L946.7422 65" clip-path="url(#clipPath2)"/>
      <path fill="none" d="M464 265 L503.9609 265" clip-path="url(#clipPath2)"/>
    </g>
  </g>
</svg>
