<?xml version="1.0" encoding="UTF-8"?><svg xmlns="http://www.w3.org/2000/svg" xmlns:xlink="http://www.w3.org/1999/xlink" fill-opacity="1" color-rendering="auto" color-interpolation="auto" stroke="black" text-rendering="auto" stroke-linecap="square" width="2285" stroke-miterlimit="10" stroke-opacity="1" shape-rendering="auto" fill="black" stroke-dasharray="none" font-weight="normal" stroke-width="1" height="989" font-family="'Dialog'" font-style="normal" stroke-linejoin="miter" font-size="12" stroke-dashoffset="0" image-rendering="auto">
  <!--Generated by ySVG-->
  <defs id="genericDefs"/>
  <g>
    <defs id="defs1">
      <clipPath clipPathUnits="userSpaceOnUse" id="clipPath1">
        <path d="M0 0 L2285 0 L2285 989 L0 989 L0 0 Z"/>
      </clipPath>
      <clipPath clipPathUnits="userSpaceOnUse" id="clipPath2">
        <path d="M-15 -15 L2270 -15 L2270 974 L-15 974 L-15 -15 Z"/>
      </clipPath>
    </defs>
    <g fill="white" transform="translate(15,15)" stroke="white">
      <rect x="-15" width="2285" height="989" y="-15" clip-path="url(#clipPath2)" stroke="none"/>
    </g>
    <g fill="rgb(255,204,153)" transform="matrix(1,0,0,1,15,15)" stroke="rgb(255,204,153)">
      <rect x="0" width="412.1035" height="30" y="206.25" clip-path="url(#clipPath2)" stroke="none"/>
    </g>
    <g stroke-miterlimit="1.45" font-family="sans-serif" transform="matrix(1,0,0,1,15,15)" stroke-linecap="butt">
      <text x="7" xml:space="preserve" y="225.4062" clip-path="url(#clipPath2)" stroke="none">com.anrisoftware.sscontrol:sscontrol-hostname:jar:1.0-SNAPSHOT</text>
      <rect fill="none" x="0" width="412.1035" height="30" y="206.25" clip-path="url(#clipPath2)"/>
    </g>
    <g fill="rgb(255,204,153)" transform="matrix(1,0,0,1,15,15)" stroke="rgb(255,204,153)">
      <rect x="452.1035" width="429.7637" height="30" y="412.5" clip-path="url(#clipPath2)" stroke="none"/>
    </g>
    <g stroke-miterlimit="1.45" font-family="sans-serif" transform="matrix(1,0,0,1,15,15)" stroke-linecap="butt">
      <text x="459.1035" xml:space="preserve" y="431.6562" clip-path="url(#clipPath2)" stroke="none">com.anrisoftware.sscontrol:sscontrol-core:jar:0.1-SNAPSHOT:compile</text>
      <rect fill="none" x="452.1035" width="429.7637" height="30" y="412.5" clip-path="url(#clipPath2)"/>
    </g>
    <g fill="rgb(255,204,153)" transform="matrix(1,0,0,1,15,15)" stroke="rgb(255,204,153)">
      <rect x="921.8672" width="421.8125" height="30" y="928.0258" clip-path="url(#clipPath2)" stroke="none"/>
    </g>
    <g stroke-miterlimit="1.45" font-family="sans-serif" transform="matrix(1,0,0,1,15,15)" stroke-linecap="butt">
      <text x="928.8672" xml:space="preserve" y="947.1821" clip-path="url(#clipPath2)" stroke="none">com.anrisoftware.sscontrol:sscontrol-api:jar:0.1-SNAPSHOT:compile</text>
      <rect fill="none" x="921.8672" width="421.8125" height="30" y="928.0258" clip-path="url(#clipPath2)"/>
    </g>
    <g fill="rgb(255,204,153)" transform="matrix(1,0,0,1,15,15)" stroke="rgb(255,204,153)">
      <rect x="921.8672" width="479.3398" height="30" y="875" clip-path="url(#clipPath2)" stroke="none"/>
    </g>
    <g stroke-miterlimit="1.45" font-family="sans-serif" transform="matrix(1,0,0,1,15,15)" stroke-linecap="butt">
      <text x="928.8672" xml:space="preserve" y="894.1562" clip-path="url(#clipPath2)" stroke="none">com.anrisoftware.sscontrol:sscontrol-workers-text:jar:1.0-SNAPSHOT:compile</text>
      <rect fill="none" x="921.8672" width="479.3398" height="30" y="875" clip-path="url(#clipPath2)"/>
    </g>
    <g fill="rgb(255,204,153)" transform="matrix(1,0,0,1,15,15)" stroke="rgb(255,204,153)">
      <rect x="1441.207" width="451.1152" height="30" y="925" clip-path="url(#clipPath2)" stroke="none"/>
    </g>
    <g stroke-miterlimit="1.45" font-family="sans-serif" transform="matrix(1,0,0,1,15,15)" stroke-linecap="butt">
      <text x="1448.207" xml:space="preserve" y="944.1562" clip-path="url(#clipPath2)" stroke="none">com.anrisoftware.sscontrol:sscontrol-workers:jar:0.1-SNAPSHOT:compile</text>
      <rect fill="none" x="1441.207" width="451.1152" height="30" y="925" clip-path="url(#clipPath2)"/>
    </g>
    <g fill="rgb(204,204,255)" transform="matrix(1,0,0,1,15,15)" stroke="rgb(204,204,255)">
      <rect x="1441.207" width="259.2207" height="30" y="875" clip-path="url(#clipPath2)" stroke="none"/>
    </g>
    <g stroke-miterlimit="1.45" font-family="sans-serif" transform="matrix(1,0,0,1,15,15)" stroke-linecap="butt">
      <text x="1448.207" xml:space="preserve" y="894.1562" clip-path="url(#clipPath2)" stroke="none">commons-io:commons-io:jar:2.4:compile</text>
      <rect fill="none" x="1441.207" width="259.2207" height="30" y="875" clip-path="url(#clipPath2)"/>
    </g>
    <g fill="rgb(204,204,255)" transform="matrix(1,0,0,1,15,15)" stroke="rgb(204,204,255)">
      <rect x="1441.207" width="406.7773" height="30" y="825" clip-path="url(#clipPath2)" stroke="none"/>
    </g>
    <g stroke-miterlimit="1.45" font-family="sans-serif" transform="matrix(1,0,0,1,15,15)" stroke-linecap="butt">
      <text x="1448.207" xml:space="preserve" y="844.1562" clip-path="url(#clipPath2)" stroke="none">com.google.inject.extensions:guice-assistedinject:jar:3.0:compile</text>
      <rect fill="none" x="1441.207" width="406.7773" height="30" y="825" clip-path="url(#clipPath2)"/>
    </g>
    <g fill="rgb(255,204,153)" transform="matrix(1,0,0,1,15,15)" stroke="rgb(255,204,153)">
      <rect x="921.8672" width="515.3398" height="30" y="725" clip-path="url(#clipPath2)" stroke="none"/>
    </g>
    <g stroke-miterlimit="1.45" font-family="sans-serif" transform="matrix(1,0,0,1,15,15)" stroke-linecap="butt">
      <text x="928.8672" xml:space="preserve" y="744.1562" clip-path="url(#clipPath2)" stroke="none">com.anrisoftware.sscontrol:sscontrol-workers-command:jar:1.0-SNAPSHOT:compile</text>
      <rect fill="none" x="921.8672" width="515.3398" height="30" y="725" clip-path="url(#clipPath2)"/>
    </g>
    <g fill="rgb(204,204,255)" transform="matrix(1,0,0,1,15,15)" stroke="rgb(204,204,255)">
      <rect x="1477.207" width="333.4355" height="30" y="775" clip-path="url(#clipPath2)" stroke="none"/>
    </g>
    <g stroke-miterlimit="1.45" font-family="sans-serif" transform="matrix(1,0,0,1,15,15)" stroke-linecap="butt">
      <text x="1484.207" xml:space="preserve" y="794.1562" clip-path="url(#clipPath2)" stroke="none">org.apache.commons:commons-exec:jar:1.1:compile</text>
      <rect fill="none" x="1477.207" width="333.4355" height="30" y="775" clip-path="url(#clipPath2)"/>
    </g>
    <g fill="rgb(204,255,255)" transform="matrix(1,0,0,1,15,15)" stroke="rgb(204,255,255)">
      <rect x="1477.207" width="360.6641" height="30" y="725" clip-path="url(#clipPath2)" stroke="none"/>
    </g>
    <g stroke-miterlimit="1.45" font-family="sans-serif" transform="matrix(1,0,0,1,15,15)" stroke-linecap="butt">
      <text x="1484.207" xml:space="preserve" y="744.1562" clip-path="url(#clipPath2)" stroke="none">com.anrisoftware.resources:resources-api:jar:1.7:compile</text>
      <rect fill="none" x="1477.207" width="360.6641" height="30" y="725" clip-path="url(#clipPath2)"/>
    </g>
    <g fill="rgb(204,255,255)" transform="matrix(1,0,0,1,15,15)" stroke="rgb(204,255,255)">
      <rect x="1877.8711" width="376.7188" height="30" y="725" clip-path="url(#clipPath2)" stroke="none"/>
    </g>
    <g stroke-miterlimit="1.45" font-family="sans-serif" transform="matrix(1,0,0,1,15,15)" stroke-linecap="butt">
      <text x="1884.8711" xml:space="preserve" y="744.1562" clip-path="url(#clipPath2)" stroke="none">com.anrisoftware.globalpom:globalpom-utils:jar:1.3:compile</text>
      <rect fill="none" x="1877.8711" width="376.7188" height="30" y="725" clip-path="url(#clipPath2)"/>
    </g>
    <g fill="rgb(204,255,255)" transform="matrix(1,0,0,1,15,15)" stroke="rgb(204,255,255)">
      <rect x="1477.207" width="505.3965" height="30" y="675" clip-path="url(#clipPath2)" stroke="none"/>
    </g>
    <g stroke-miterlimit="1.45" font-family="sans-serif" transform="matrix(1,0,0,1,15,15)" stroke-linecap="butt">
      <text x="1484.207" xml:space="preserve" y="694.1562" clip-path="url(#clipPath2)" stroke="none">com.anrisoftware.propertiesutils:propertiesutils-contextproperties:jar:1.5:compile</text>
      <rect fill="none" x="1477.207" width="505.3965" height="30" y="675" clip-path="url(#clipPath2)"/>
    </g>
    <g fill="rgb(204,204,255)" transform="matrix(1,0,0,1,15,15)" stroke="rgb(204,204,255)">
      <rect x="921.8672" width="338.5156" height="30" y="675" clip-path="url(#clipPath2)" stroke="none"/>
    </g>
    <g stroke-miterlimit="1.45" font-family="sans-serif" transform="matrix(1,0,0,1,15,15)" stroke-linecap="butt">
      <text x="928.8672" xml:space="preserve" y="694.1562" clip-path="url(#clipPath2)" stroke="none">org.apache.commons:commons-lang3:jar:3.1:compile</text>
      <rect fill="none" x="921.8672" width="338.5156" height="30" y="675" clip-path="url(#clipPath2)"/>
    </g>
    <g fill="rgb(204,204,255)" transform="matrix(1,0,0,1,15,15)" stroke="rgb(204,204,255)">
      <rect x="921.8672" width="291.7754" height="30" y="500" clip-path="url(#clipPath2)" stroke="none"/>
    </g>
    <g stroke-miterlimit="1.45" font-family="sans-serif" transform="matrix(1,0,0,1,15,15)" stroke-linecap="butt">
      <text x="928.8672" xml:space="preserve" y="519.1562" clip-path="url(#clipPath2)" stroke="none">org.codehaus.groovy:groovy:jar:2.1.1:compile</text>
      <rect fill="none" x="921.8672" width="291.7754" height="30" y="500" clip-path="url(#clipPath2)"/>
    </g>
    <g fill="rgb(204,204,255)" transform="matrix(1,0,0,1,15,15)" stroke="rgb(204,204,255)">
      <rect x="1253.6426" width="179.4863" height="30" y="625" clip-path="url(#clipPath2)" stroke="none"/>
    </g>
    <g stroke-miterlimit="1.45" font-family="sans-serif" transform="matrix(1,0,0,1,15,15)" stroke-linecap="butt">
      <text x="1260.6426" xml:space="preserve" y="644.1562" clip-path="url(#clipPath2)" stroke="none">antlr:antlr:jar:2.7.7:compile</text>
      <rect fill="none" x="1253.6426" width="179.4863" height="30" y="625" clip-path="url(#clipPath2)"/>
    </g>
    <g fill="rgb(204,204,255)" transform="matrix(1,0,0,1,15,15)" stroke="rgb(204,204,255)">
      <rect x="1253.6426" width="243.8105" height="30" y="575" clip-path="url(#clipPath2)" stroke="none"/>
    </g>
    <g stroke-miterlimit="1.45" font-family="sans-serif" transform="matrix(1,0,0,1,15,15)" stroke-linecap="butt">
      <text x="1260.6426" xml:space="preserve" y="594.1562" clip-path="url(#clipPath2)" stroke="none">org.ow2.asm:asm-tree:jar:4.0:compile</text>
      <rect fill="none" x="1253.6426" width="243.8105" height="30" y="575" clip-path="url(#clipPath2)"/>
    </g>
    <g fill="rgb(204,204,255)" transform="matrix(1,0,0,1,15,15)" stroke="rgb(204,204,255)">
      <rect x="1253.6426" width="277.9238" height="30" y="525" clip-path="url(#clipPath2)" stroke="none"/>
    </g>
    <g stroke-miterlimit="1.45" font-family="sans-serif" transform="matrix(1,0,0,1,15,15)" stroke-linecap="butt">
      <text x="1260.6426" xml:space="preserve" y="544.1562" clip-path="url(#clipPath2)" stroke="none">org.ow2.asm:asm-commons:jar:4.0:compile</text>
      <rect fill="none" x="1253.6426" width="277.9238" height="30" y="525" clip-path="url(#clipPath2)"/>
    </g>
    <g fill="rgb(204,204,255)" transform="matrix(1,0,0,1,15,15)" stroke="rgb(204,204,255)">
      <rect x="1253.6426" width="215.0762" height="30" y="475" clip-path="url(#clipPath2)" stroke="none"/>
    </g>
    <g stroke-miterlimit="1.45" font-family="sans-serif" transform="matrix(1,0,0,1,15,15)" stroke-linecap="butt">
      <text x="1260.6426" xml:space="preserve" y="494.1562" clip-path="url(#clipPath2)" stroke="none">org.ow2.asm:asm:jar:4.0:compile</text>
      <rect fill="none" x="1253.6426" width="215.0762" height="30" y="475" clip-path="url(#clipPath2)"/>
    </g>
    <g fill="rgb(204,204,255)" transform="matrix(1,0,0,1,15,15)" stroke="rgb(204,204,255)">
      <rect x="1253.6426" width="238.3848" height="30" y="425" clip-path="url(#clipPath2)" stroke="none"/>
    </g>
    <g stroke-miterlimit="1.45" font-family="sans-serif" transform="matrix(1,0,0,1,15,15)" stroke-linecap="butt">
      <text x="1260.6426" xml:space="preserve" y="444.1562" clip-path="url(#clipPath2)" stroke="none">org.ow2.asm:asm-util:jar:4.0:compile</text>
      <rect fill="none" x="1253.6426" width="238.3848" height="30" y="425" clip-path="url(#clipPath2)"/>
    </g>
    <g fill="rgb(204,204,255)" transform="matrix(1,0,0,1,15,15)" stroke="rgb(204,204,255)">
      <rect x="1253.6426" width="267.9922" height="30" y="375" clip-path="url(#clipPath2)" stroke="none"/>
    </g>
    <g stroke-miterlimit="1.45" font-family="sans-serif" transform="matrix(1,0,0,1,15,15)" stroke-linecap="butt">
      <text x="1260.6426" xml:space="preserve" y="394.1562" clip-path="url(#clipPath2)" stroke="none">org.ow2.asm:asm-analysis:jar:4.0:compile</text>
      <rect fill="none" x="1253.6426" width="267.9922" height="30" y="375" clip-path="url(#clipPath2)"/>
    </g>
    <g fill="rgb(204,204,255)" transform="matrix(1,0,0,1,15,15)" stroke="rgb(204,204,255)">
      <rect x="921.8672" width="376.9707" height="30" y="325" clip-path="url(#clipPath2)" stroke="none"/>
    </g>
    <g stroke-miterlimit="1.45" font-family="sans-serif" transform="matrix(1,0,0,1,15,15)" stroke-linecap="butt">
      <text x="928.8672" xml:space="preserve" y="344.1562" clip-path="url(#clipPath2)" stroke="none">commons-collections:commons-collections:jar:3.2.1:compile</text>
      <rect fill="none" x="921.8672" width="376.9707" height="30" y="325" clip-path="url(#clipPath2)"/>
    </g>
    <g fill="rgb(204,255,255)" transform="matrix(1,0,0,1,15,15)" stroke="rgb(204,255,255)">
      <rect x="921.8672" width="381.2305" height="30" y="275" clip-path="url(#clipPath2)" stroke="none"/>
    </g>
    <g stroke-miterlimit="1.45" font-family="sans-serif" transform="matrix(1,0,0,1,15,15)" stroke-linecap="butt">
      <text x="928.8672" xml:space="preserve" y="294.1562" clip-path="url(#clipPath2)" stroke="none">com.anrisoftware.globalpom:globalpom-log:jar:1.9.1:compile</text>
      <rect fill="none" x="921.8672" width="381.2305" height="30" y="275" clip-path="url(#clipPath2)"/>
    </g>
    <g fill="rgb(204,255,255)" transform="matrix(1,0,0,1,15,15)" stroke="rgb(204,255,255)">
      <rect x="921.8672" width="402.7812" height="30" y="225" clip-path="url(#clipPath2)" stroke="none"/>
    </g>
    <g stroke-miterlimit="1.45" font-family="sans-serif" transform="matrix(1,0,0,1,15,15)" stroke-linecap="butt">
      <text x="928.8672" xml:space="preserve" y="244.1562" clip-path="url(#clipPath2)" stroke="none">com.anrisoftware.resources:resources-templates:jar:1.2:compile</text>
      <rect fill="none" x="921.8672" width="402.7812" height="30" y="225" clip-path="url(#clipPath2)"/>
    </g>
    <g fill="rgb(204,255,255)" transform="matrix(1,0,0,1,15,15)" stroke="rgb(204,255,255)">
      <rect x="1364.6484" width="403.2266" height="30" y="225" clip-path="url(#clipPath2)" stroke="none"/>
    </g>
    <g stroke-miterlimit="1.45" font-family="sans-serif" transform="matrix(1,0,0,1,15,15)" stroke-linecap="butt">
      <text x="1371.6484" xml:space="preserve" y="244.1562" clip-path="url(#clipPath2)" stroke="none">com.anrisoftware.resources:resources-getbundle:jar:1.5:compile</text>
      <rect fill="none" x="1364.6484" width="403.2266" height="30" y="225" clip-path="url(#clipPath2)"/>
    </g>
    <g fill="rgb(204,255,255)" transform="matrix(1,0,0,1,15,15)" stroke="rgb(204,255,255)">
      <rect x="921.8672" width="353.3164" height="30" y="175" clip-path="url(#clipPath2)" stroke="none"/>
    </g>
    <g stroke-miterlimit="1.45" font-family="sans-serif" transform="matrix(1,0,0,1,15,15)" stroke-linecap="butt">
      <text x="928.8672" xml:space="preserve" y="194.1562" clip-path="url(#clipPath2)" stroke="none">com.anrisoftware.resources:resources-st:jar:1.4:compile</text>
      <rect fill="none" x="921.8672" width="353.3164" height="30" y="175" clip-path="url(#clipPath2)"/>
    </g>
    <g fill="rgb(204,204,255)" transform="matrix(1,0,0,1,15,15)" stroke="rgb(204,204,255)">
      <rect x="1315.1836" width="197.8438" height="30" y="175" clip-path="url(#clipPath2)" stroke="none"/>
    </g>
    <g stroke-miterlimit="1.45" font-family="sans-serif" transform="matrix(1,0,0,1,15,15)" stroke-linecap="butt">
      <text x="1322.1836" xml:space="preserve" y="194.1562" clip-path="url(#clipPath2)" stroke="none">org.antlr:ST4:jar:4.0.4:compile</text>
      <rect fill="none" x="1315.1836" width="197.8438" height="30" y="175" clip-path="url(#clipPath2)"/>
    </g>
    <g fill="rgb(204,204,255)" transform="matrix(1,0,0,1,15,15)" stroke="rgb(204,204,255)">
      <rect x="1553.0273" width="243.3301" height="30" y="175" clip-path="url(#clipPath2)" stroke="none"/>
    </g>
    <g stroke-miterlimit="1.45" font-family="sans-serif" transform="matrix(1,0,0,1,15,15)" stroke-linecap="butt">
      <text x="1560.0273" xml:space="preserve" y="194.1562" clip-path="url(#clipPath2)" stroke="none">org.antlr:antlr-runtime:jar:3.3:compile</text>
      <rect fill="none" x="1553.0273" width="243.3301" height="30" y="175" clip-path="url(#clipPath2)"/>
    </g>
    <g fill="rgb(204,204,255)" transform="matrix(1,0,0,1,15,15)" stroke="rgb(204,204,255)">
      <rect x="1836.3574" width="263.8789" height="30" y="175" clip-path="url(#clipPath2)" stroke="none"/>
    </g>
    <g stroke-miterlimit="1.45" font-family="sans-serif" transform="matrix(1,0,0,1,15,15)" stroke-linecap="butt">
      <text x="1843.3574" xml:space="preserve" y="194.1562" clip-path="url(#clipPath2)" stroke="none">org.antlr:stringtemplate:jar:3.2.1:compile</text>
      <rect fill="none" x="1836.3574" width="263.8789" height="30" y="175" clip-path="url(#clipPath2)"/>
    </g>
    <g fill="rgb(204,255,255)" transform="matrix(1,0,0,1,15,15)" stroke="rgb(204,255,255)">
      <rect x="921.8672" width="372.5059" height="30" y="125" clip-path="url(#clipPath2)" stroke="none"/>
    </g>
    <g stroke-miterlimit="1.45" font-family="sans-serif" transform="matrix(1,0,0,1,15,15)" stroke-linecap="butt">
      <text x="928.8672" xml:space="preserve" y="144.1562" clip-path="url(#clipPath2)" stroke="none">com.anrisoftware.resources:resources-texts:jar:1.4:compile</text>
      <rect fill="none" x="921.8672" width="372.5059" height="30" y="125" clip-path="url(#clipPath2)"/>
    </g>
    <g fill="rgb(204,255,255)" transform="matrix(1,0,0,1,15,15)" stroke="rgb(204,255,255)">
      <rect x="1334.373" width="380.3047" height="30" y="125" clip-path="url(#clipPath2)" stroke="none"/>
    </g>
    <g stroke-miterlimit="1.45" font-family="sans-serif" transform="matrix(1,0,0,1,15,15)" stroke-linecap="butt">
      <text x="1341.373" xml:space="preserve" y="144.1562" clip-path="url(#clipPath2)" stroke="none">com.anrisoftware.resources:resources-binary:jar:1.6:compile</text>
      <rect fill="none" x="1334.373" width="380.3047" height="30" y="125" clip-path="url(#clipPath2)"/>
    </g>
    <g fill="rgb(204,204,255)" transform="matrix(1,0,0,1,15,15)" stroke="rgb(204,204,255)">
      <rect x="452.1035" width="226.959" height="30" y="362.5" clip-path="url(#clipPath2)" stroke="none"/>
    </g>
    <g stroke-miterlimit="1.45" font-family="sans-serif" transform="matrix(1,0,0,1,15,15)" stroke-linecap="butt">
      <text x="459.1035" xml:space="preserve" y="381.6562" clip-path="url(#clipPath2)" stroke="none">org.mangosdk:spi:jar:0.2.1:compile</text>
      <rect fill="none" x="452.1035" width="226.959" height="30" y="362.5" clip-path="url(#clipPath2)"/>
    </g>
    <g fill="rgb(204,204,255)" transform="matrix(1,0,0,1,15,15)" stroke="rgb(204,204,255)">
      <rect x="452.1035" width="406.3203" height="30" y="50" clip-path="url(#clipPath2)" stroke="none"/>
    </g>
    <g stroke-miterlimit="1.45" font-family="sans-serif" transform="matrix(1,0,0,1,15,15)" stroke-linecap="butt">
      <text x="459.1035" xml:space="preserve" y="69.1562" clip-path="url(#clipPath2)" stroke="none">com.google.inject.extensions:guice-multibindings:jar:3.0:compile</text>
      <rect fill="none" x="452.1035" width="406.3203" height="30" y="50" clip-path="url(#clipPath2)"/>
    </g>
    <g fill="rgb(204,204,255)" transform="matrix(1,0,0,1,15,15)" stroke="rgb(204,204,255)">
      <rect x="898.4238" width="251.5625" height="30" y="50" clip-path="url(#clipPath2)" stroke="none"/>
    </g>
    <g stroke-miterlimit="1.45" font-family="sans-serif" transform="matrix(1,0,0,1,15,15)" stroke-linecap="butt">
      <text x="905.4238" xml:space="preserve" y="69.1562" clip-path="url(#clipPath2)" stroke="none">com.google.inject:guice:jar:3.0:compile</text>
      <rect fill="none" x="898.4238" width="251.5625" height="30" y="50" clip-path="url(#clipPath2)"/>
    </g>
    <g fill="rgb(204,204,255)" transform="matrix(1,0,0,1,15,15)" stroke="rgb(204,204,255)">
      <rect x="1189.9863" width="238.7598" height="30" y="75" clip-path="url(#clipPath2)" stroke="none"/>
    </g>
    <g stroke-miterlimit="1.45" font-family="sans-serif" transform="matrix(1,0,0,1,15,15)" stroke-linecap="butt">
      <text x="1196.9863" xml:space="preserve" y="94.1562" clip-path="url(#clipPath2)" stroke="none">javax.inject:javax.inject:jar:1:compile</text>
      <rect fill="none" x="1189.9863" width="238.7598" height="30" y="75" clip-path="url(#clipPath2)"/>
    </g>
    <g fill="rgb(204,204,255)" transform="matrix(1,0,0,1,15,15)" stroke="rgb(204,204,255)">
      <rect x="1189.9863" width="249.3887" height="30" y="25" clip-path="url(#clipPath2)" stroke="none"/>
    </g>
    <g stroke-miterlimit="1.45" font-family="sans-serif" transform="matrix(1,0,0,1,15,15)" stroke-linecap="butt">
      <text x="1196.9863" xml:space="preserve" y="44.1562" clip-path="url(#clipPath2)" stroke="none">aopalliance:aopalliance:jar:1.0:compile</text>
      <rect fill="none" x="1189.9863" width="249.3887" height="30" y="25" clip-path="url(#clipPath2)"/>
    </g>
    <g fill="rgb(204,204,255)" transform="matrix(1,0,0,1,15,15)" stroke="rgb(204,204,255)">
      <rect x="452.1035" width="219.5234" height="30" y="0" clip-path="url(#clipPath2)" stroke="none"/>
    </g>
    <g stroke-miterlimit="1.45" font-family="sans-serif" transform="matrix(1,0,0,1,15,15)" stroke-linecap="butt">
      <text x="459.1035" xml:space="preserve" y="19.1562" clip-path="url(#clipPath2)" stroke="none">org.slf4j:slf4j-api:jar:1.6.6:compile</text>
      <rect fill="none" x="452.1035" width="219.5234" height="30" y="0" clip-path="url(#clipPath2)"/>
      <path fill="none" d="M206.0518 236.25 L206.0518 406.2868 L227.265 427.5 L452.0761 427.5" clip-path="url(#clipPath2)"/>
      <path fill="none" d="M508.074 442.5 L508.074 921.8126 L529.2872 943.0258 L921.8193 943.0258" clip-path="url(#clipPath2)"/>
      <path fill="none" d="M614.0149 442.5 L614.0149 868.7868 L635.2281 890 L921.8322 890" clip-path="url(#clipPath2)"/>
      <path fill="none" d="M1375.9434 905 L1375.9434 931.5147 L1384.4286 940 L1441.1793 940" clip-path="url(#clipPath2)"/>
      <path fill="none" d="M1401.207 890 L1441.168 890" clip-path="url(#clipPath2)"/>
      <path fill="none" d="M1161.5371 874.951 L1161.5371 849.8995 L1171.4366 840 L1441.1741 840" clip-path="url(#clipPath2)"/>
      <path fill="none" d="M719.9558 442.5 L719.9558 718.7868 L741.169 740 L921.8231 740" clip-path="url(#clipPath2)"/>
      <path fill="none" d="M1179.5371 755 L1179.5371 781.5147 L1188.0223 790 L1477.1718 790" clip-path="url(#clipPath2)"/>
      <path fill="none" d="M1437.207 740 L1477.168 740" clip-path="url(#clipPath2)"/>
      <path fill="none" d="M1837.8711 740 L1877.832 740" clip-path="url(#clipPath2)"/>
      <path fill="none" d="M1352.2949 724.9741 L1352.2949 698.4853 L1360.7802 690 L1477.1786 690" clip-path="url(#clipPath2)"/>
      <path fill="none" d="M825.8967 442.5 L825.8967 668.7868 L847.1099 690 L921.8307 690" clip-path="url(#clipPath2)"/>
      <path fill="none" d="M881.8672 433.75 L935.0599 433.75 L953.4447 452.1348 L953.4447 499.9532" clip-path="url(#clipPath2)"/>
      <path fill="none" d="M972.4964 530 L972.4964 618.7868 L993.7096 640 L1253.6108 640" clip-path="url(#clipPath2)"/>
      <path fill="none" d="M1067.7549 530 L1067.7549 573.0294 L1084.7255 590 L1253.6013 590" clip-path="url(#clipPath2)"/>
      <path fill="none" d="M1163.0133 530 L1163.0133 543.1716 L1165.8418 546 L1253.5997 546" clip-path="url(#clipPath2)"/>
      <path fill="none" d="M1182.0651 499.9743 L1182.0651 486.8284 L1184.8934 484 L1253.609 484" clip-path="url(#clipPath2)"/>
      <path fill="none" d="M1124.9099 499.961 L1124.9099 460.0588 L1139.0521 445.9167 L1253.6146 445.9167" clip-path="url(#clipPath2)"/>
      <path fill="none" d="M1067.7549 499.9566 L1067.7549 411.2132 L1088.9681 390 L1253.6024 390" clip-path="url(#clipPath2)"/>
      <path fill="none" d="M881.8672 421.5833 L990.8008 421.5833 L1010.5998 401.7843 L1010.5998 355" clip-path="url(#clipPath2)"/>
      <path fill="none" d="M851.7523 412.4749 L851.7523 309.799 L871.5512 290 L921.8181 290" clip-path="url(#clipPath2)"/>
      <path fill="none" d="M797.5223 412.4614 L797.5223 254.4632 L818.7355 233.25 L921.842 233.25" clip-path="url(#clipPath2)"/>
      <path fill="none" d="M1324.6484 240 L1364.6094 240" clip-path="url(#clipPath2)"/>
      <path fill="none" d="M743.2924 412.4509 L743.2924 211.2132 L764.5056 190 L921.8288 190" clip-path="url(#clipPath2)"/>
      <path fill="none" d="M1275.1836 190 L1315.1445 190" clip-path="url(#clipPath2)"/>
      <path fill="none" d="M1513.0273 190 L1552.9883 190" clip-path="url(#clipPath2)"/>
      <path fill="none" d="M1796.3574 190 L1836.3184 190" clip-path="url(#clipPath2)"/>
      <path fill="none" d="M689.0625 412.4693 L689.0625 161.2132 L710.2757 140 L921.8414 140" clip-path="url(#clipPath2)"/>
      <path fill="none" d="M1294.373 140 L1334.334 140" clip-path="url(#clipPath2)"/>
      <path fill="none" d="M412.1035 233.25 L480.6821 233.25 L501.8953 254.4632 L501.8953 362.4736" clip-path="url(#clipPath2)"/>
      <path fill="none" d="M412.1035 219.9375 L574.2657 219.9375 L595.4789 198.7243 L595.4789 80" clip-path="url(#clipPath2)"/>
      <path fill="none" d="M858.4238 65 L898.3848 65" clip-path="url(#clipPath2)"/>
      <path fill="none" d="M1024.2051 80 L1024.2051 93.1716 L1027.0334 96 L1189.9465 96" clip-path="url(#clipPath2)"/>
      <path fill="none" d="M1024.2051 49.9541 L1024.2051 38.2426 L1028.4478 34 L1189.9469 34" clip-path="url(#clipPath2)"/>
      <path fill="none" d="M206.0518 206.2085 L206.0518 36.2132 L227.265 15 L452.0761 15" clip-path="url(#clipPath2)"/>
    </g>
  </g>
</svg>
